solid Untitled-56b2c3cd
facet normal 1.1102230246251565e-16 0.0 1.0
  outer loop
    vertex 1.5352839904044937 1.0 0.11796407770101758
    vertex 1.0352839904044937 0.5 0.1179640777010178
    vertex 1.5352839904044937 0.5 0.11796407770101758
  endloop
endfacet
facet normal 1.1102230246251565e-16 0.0 1.0
  outer loop
    vertex 1.0352839904044937 0.5 0.1179640777010178
    vertex 0.03528399040449376 0.0 0.1179640777010178
    vertex 1.0352839904044937 0.0 0.1179640777010178
  endloop
endfacet
facet normal 1.1102230246251565e-16 0.0 1.0
  outer loop
    vertex 0.03528399040449376 0.0 0.1179640777010178
    vertex 1.0352839904044937 0.5 0.1179640777010178
    vertex 0.03528399040449376 1.0 0.1179640777010178
  endloop
endfacet
facet normal 1.1102230246251565e-16 0.0 1.0
  outer loop
    vertex 0.03528399040449376 1.0 0.1179640777010178
    vertex 1.0352839904044937 0.5 0.1179640777010178
    vertex 1.5352839904044937 1.0 0.11796407770101758
  endloop
endfacet
facet normal -1.0 0.0 1.1102230246251565e-16
  outer loop
    vertex 1.5352839904044937 1.0 0.11796407770101758
    vertex 1.535283990404494 0.5 0.6179640777010176
    vertex 1.535283990404494 1.0 0.6179640777010176
  endloop
endfacet
facet normal -1.0 0.0 1.1102230246251565e-16
  outer loop
    vertex 1.535283990404494 0.5 0.6179640777010176
    vertex 1.5352839904044937 1.0 0.11796407770101758
    vertex 1.5352839904044937 0.5 0.11796407770101758
  endloop
endfacet
facet normal -1.1102230246251565e-16 0.0 -1.0
  outer loop
    vertex 0.035283990404493926 0.5 1.6179640777010178
    vertex 1.035283990404494 0.0 1.6179640777010178
    vertex 0.035283990404493926 0.0 1.6179640777010178
  endloop
endfacet
facet normal -1.1102230246251565e-16 0.0 -1.0
  outer loop
    vertex 1.035283990404494 0.0 1.6179640777010178
    vertex 0.035283990404493926 0.5 1.6179640777010178
    vertex 1.035283990404494 0.5 1.6179640777010178
  endloop
endfacet
facet normal 0.0 -1.0 -0.0
  outer loop
    vertex 1.5352839904044937 1.0 0.11796407770101758
    vertex 0.035283990404493815 1.0 0.6179640777010178
    vertex 0.03528399040449376 1.0 0.1179640777010178
  endloop
endfacet
facet normal 0.0 -1.0 -0.0
  outer loop
    vertex 0.035283990404493815 1.0 0.6179640777010178
    vertex 1.5352839904044937 1.0 0.11796407770101758
    vertex 0.5352839904044938 1.0 0.6179640777010178
  endloop
endfacet
facet normal 0.0 -1.0 -0.0
  outer loop
    vertex 0.5352839904044938 1.0 0.6179640777010178
    vertex 1.5352839904044937 1.0 0.11796407770101758
    vertex 0.5352839904044939 1.0 1.1179640777010178
  endloop
endfacet
facet normal 0.0 -1.0 -0.0
  outer loop
    vertex 0.5352839904044939 1.0 1.1179640777010178
    vertex 1.5352839904044937 1.0 0.11796407770101758
    vertex 1.0352839904044937 1.0 0.6179640777010178
  endloop
endfacet
facet normal 0.0 -1.0 -0.0
  outer loop
    vertex 1.0352839904044937 1.0 0.6179640777010178
    vertex 1.5352839904044937 1.0 0.11796407770101758
    vertex 1.535283990404494 1.0 0.6179640777010176
  endloop
endfacet
facet normal 0.0 -1.0 -0.0
  outer loop
    vertex 1.035283990404494 1.0 1.1179640777010178
    vertex 0.5352839904044939 1.0 1.1179640777010178
    vertex 1.0352839904044937 1.0 0.6179640777010178
  endloop
endfacet
facet normal 1.0 0.0 -1.1102230246251565e-16
  outer loop
    vertex 0.5352839904044938 0.5 0.6179640777010178
    vertex 0.5352839904044939 1.0 1.1179640777010178
    vertex 0.5352839904044939 0.5 1.1179640777010178
  endloop
endfacet
facet normal 1.0 0.0 -1.1102230246251565e-16
  outer loop
    vertex 0.5352839904044939 1.0 1.1179640777010178
    vertex 0.5352839904044938 0.5 0.6179640777010178
    vertex 0.5352839904044938 1.0 0.6179640777010178
  endloop
endfacet
facet normal 0.0 1.0 0.0
  outer loop
    vertex 1.535283990404494 0.5 0.6179640777010176
    vertex 1.0352839904044937 0.5 0.1179640777010178
    vertex 1.0352839904044937 0.5 0.6179640777010178
  endloop
endfacet
facet normal 0.0 1.0 0.0
  outer loop
    vertex 1.0352839904044937 0.5 0.1179640777010178
    vertex 1.535283990404494 0.5 0.6179640777010176
    vertex 1.5352839904044937 0.5 0.11796407770101758
  endloop
endfacet
facet normal -1.1102230246251565e-16 0.0 -1.0
  outer loop
    vertex 0.5352839904044939 1.0 1.1179640777010178
    vertex 1.035283990404494 0.5 1.1179640777010178
    vertex 0.5352839904044939 0.5 1.1179640777010178
  endloop
endfacet
facet normal -1.1102230246251565e-16 0.0 -1.0
  outer loop
    vertex 1.035283990404494 0.5 1.1179640777010178
    vertex 0.5352839904044939 1.0 1.1179640777010178
    vertex 1.035283990404494 1.0 1.1179640777010178
  endloop
endfacet
facet normal -1.0 0.0 1.1102230246251565e-16
  outer loop
    vertex 1.0352839904044937 1.0 0.6179640777010178
    vertex 1.035283990404494 0.5 1.1179640777010178
    vertex 1.035283990404494 1.0 1.1179640777010178
  endloop
endfacet
facet normal -1.0 0.0 1.1102230246251565e-16
  outer loop
    vertex 1.035283990404494 0.5 1.1179640777010178
    vertex 1.0352839904044937 1.0 0.6179640777010178
    vertex 1.0352839904044937 0.5 0.6179640777010178
  endloop
endfacet
facet normal -1.0 0.0 1.1102230246251565e-16
  outer loop
    vertex 1.035283990404494 0.5 1.1179640777010178
    vertex 1.035283990404494 0.0 1.6179640777010178
    vertex 1.035283990404494 0.5 1.6179640777010178
  endloop
endfacet
facet normal -1.0 0.0 1.1102230246251565e-16
  outer loop
    vertex 1.035283990404494 0.0 1.6179640777010178
    vertex 1.035283990404494 0.5 1.1179640777010178
    vertex 1.0352839904044937 0.0 0.1179640777010178
  endloop
endfacet
facet normal -1.0 0.0 1.1102230246251565e-16
  outer loop
    vertex 1.0352839904044937 0.0 0.1179640777010178
    vertex 1.035283990404494 0.5 1.1179640777010178
    vertex 1.0352839904044937 0.5 0.6179640777010178
  endloop
endfacet
facet normal -1.0 0.0 1.1102230246251565e-16
  outer loop
    vertex 1.0352839904044937 0.0 0.1179640777010178
    vertex 1.0352839904044937 0.5 0.6179640777010178
    vertex 1.0352839904044937 0.5 0.1179640777010178
  endloop
endfacet
facet normal -1.1102230246251565e-16 0.0 -1.0
  outer loop
    vertex 1.0352839904044937 1.0 0.6179640777010178
    vertex 1.535283990404494 0.5 0.6179640777010176
    vertex 1.0352839904044937 0.5 0.6179640777010178
  endloop
endfacet
facet normal -1.1102230246251565e-16 0.0 -1.0
  outer loop
    vertex 1.535283990404494 0.5 0.6179640777010176
    vertex 1.0352839904044937 1.0 0.6179640777010178
    vertex 1.535283990404494 1.0 0.6179640777010176
  endloop
endfacet
facet normal 0.0 1.0 0.0
  outer loop
    vertex 1.035283990404494 0.0 1.6179640777010178
    vertex 0.03528399040449376 0.0 0.1179640777010178
    vertex 0.035283990404493926 0.0 1.6179640777010178
  endloop
endfacet
facet normal 0.0 1.0 0.0
  outer loop
    vertex 0.03528399040449376 0.0 0.1179640777010178
    vertex 1.035283990404494 0.0 1.6179640777010178
    vertex 1.0352839904044937 0.0 0.1179640777010178
  endloop
endfacet
facet normal 0.0 -1.0 -0.0
  outer loop
    vertex 0.5352839904044938 0.5 0.6179640777010178
    vertex 0.035283990404493926 0.5 1.6179640777010178
    vertex 0.035283990404493815 0.5 0.6179640777010178
  endloop
endfacet
facet normal 0.0 -1.0 -0.0
  outer loop
    vertex 0.035283990404493926 0.5 1.6179640777010178
    vertex 0.5352839904044938 0.5 0.6179640777010178
    vertex 0.5352839904044939 0.5 1.1179640777010178
  endloop
endfacet
facet normal 0.0 -1.0 -0.0
  outer loop
    vertex 0.035283990404493926 0.5 1.6179640777010178
    vertex 0.5352839904044939 0.5 1.1179640777010178
    vertex 1.035283990404494 0.5 1.6179640777010178
  endloop
endfacet
facet normal 0.0 -1.0 -0.0
  outer loop
    vertex 1.035283990404494 0.5 1.6179640777010178
    vertex 0.5352839904044939 0.5 1.1179640777010178
    vertex 1.035283990404494 0.5 1.1179640777010178
  endloop
endfacet
facet normal -1.1102230246251565e-16 0.0 -1.0
  outer loop
    vertex 0.035283990404493815 1.0 0.6179640777010178
    vertex 0.5352839904044938 0.5 0.6179640777010178
    vertex 0.035283990404493815 0.5 0.6179640777010178
  endloop
endfacet
facet normal -1.1102230246251565e-16 0.0 -1.0
  outer loop
    vertex 0.5352839904044938 0.5 0.6179640777010178
    vertex 0.035283990404493815 1.0 0.6179640777010178
    vertex 0.5352839904044938 1.0 0.6179640777010178
  endloop
endfacet
facet normal 1.0 0.0 -1.1102230246251565e-16
  outer loop
    vertex 0.03528399040449376 0.0 0.1179640777010178
    vertex 0.035283990404493926 0.5 1.6179640777010178
    vertex 0.035283990404493926 0.0 1.6179640777010178
  endloop
endfacet
facet normal 1.0 0.0 -1.1102230246251565e-16
  outer loop
    vertex 0.035283990404493926 0.5 1.6179640777010178
    vertex 0.03528399040449376 0.0 0.1179640777010178
    vertex 0.035283990404493815 0.5 0.6179640777010178
  endloop
endfacet
facet normal 1.0 0.0 -1.1102230246251565e-16
  outer loop
    vertex 0.035283990404493815 0.5 0.6179640777010178
    vertex 0.03528399040449376 0.0 0.1179640777010178
    vertex 0.035283990404493815 1.0 0.6179640777010178
  endloop
endfacet
facet normal 1.0 0.0 -1.1102230246251565e-16
  outer loop
    vertex 0.035283990404493815 1.0 0.6179640777010178
    vertex 0.03528399040449376 0.0 0.1179640777010178
    vertex 0.03528399040449376 1.0 0.1179640777010178
  endloop
endfacet
endsolid Untitled-56b2c3cd
