solid Untitled-56abdbb5
facet normal 1.942890293094024e-16 0.0 -1.0
  outer loop
    vertex 0.809605388073383 1.6784362211658967 0.10933124300318009
    vertex 1.3096053880733831 0.6784362211658967 0.1093312430031802
    vertex 0.809605388073383 0.6784362211658967 0.10933124300318009
  endloop
endfacet
facet normal 1.942890293094024e-16 0.0 -1.0
  outer loop
    vertex 1.3096053880733831 0.6784362211658967 0.1093312430031802
    vertex 1.8096053880733831 0.1784362211658972 0.10933124300318031
    vertex 1.3096053880733831 0.1784362211658972 0.1093312430031802
  endloop
endfacet
facet normal 1.942890293094024e-16 0.0 -1.0
  outer loop
    vertex 1.8096053880733831 0.1784362211658972 0.10933124300318031
    vertex 1.3096053880733831 0.6784362211658967 0.1093312430031802
    vertex 1.8096053880733831 1.6784362211658967 0.10933124300318031
  endloop
endfacet
facet normal 1.942890293094024e-16 0.0 -1.0
  outer loop
    vertex 1.8096053880733831 1.6784362211658967 0.10933124300318031
    vertex 1.3096053880733831 0.6784362211658967 0.1093312430031802
    vertex 0.809605388073383 1.6784362211658967 0.10933124300318009
  endloop
endfacet
facet normal 1.0 0.0 1.942890293094024e-16
  outer loop
    vertex 1.8096053880733831 0.1784362211658972 0.10933124300318031
    vertex 1.8096053880733827 0.6784362211658967 0.6093312430031803
    vertex 1.8096053880733827 0.1784362211658972 0.6093312430031803
  endloop
endfacet
facet normal 1.0 0.0 1.942890293094024e-16
  outer loop
    vertex 1.8096053880733827 0.6784362211658967 0.6093312430031803
    vertex 1.8096053880733831 0.1784362211658972 0.10933124300318031
    vertex 1.8096053880733827 1.1784362211658967 0.6093312430031803
  endloop
endfacet
facet normal 1.0 0.0 1.942890293094024e-16
  outer loop
    vertex 1.8096053880733827 1.1784362211658967 0.6093312430031803
    vertex 1.8096053880733831 0.1784362211658972 0.10933124300318031
    vertex 1.8096053880733827 1.6784362211658967 0.6093312430031803
  endloop
endfacet
facet normal 1.0 0.0 1.942890293094024e-16
  outer loop
    vertex 1.8096053880733827 1.6784362211658967 0.6093312430031803
    vertex 1.8096053880733831 0.1784362211658972 0.10933124300318031
    vertex 1.8096053880733831 1.6784362211658967 0.10933124300318031
  endloop
endfacet
facet normal 1.0 0.0 1.942890293094024e-16
  outer loop
    vertex 1.8096053880733827 0.6784362211658967 0.6093312430031803
    vertex 1.8096053880733827 1.1784362211658967 1.1093312430031803
    vertex 1.8096053880733827 0.6784362211658967 1.1093312430031803
  endloop
endfacet
facet normal 1.0 0.0 1.942890293094024e-16
  outer loop
    vertex 1.8096053880733827 1.1784362211658967 1.1093312430031803
    vertex 1.8096053880733827 0.6784362211658967 0.6093312430031803
    vertex 1.8096053880733827 1.1784362211658967 0.6093312430031803
  endloop
endfacet
facet normal 0.0 -1.0 0.0
  outer loop
    vertex 1.8096053880733831 0.1784362211658972 0.10933124300318031
    vertex 1.309605388073383 0.1784362211658972 0.6093312430031802
    vertex 1.3096053880733831 0.1784362211658972 0.1093312430031802
  endloop
endfacet
facet normal 0.0 -1.0 0.0
  outer loop
    vertex 1.309605388073383 0.1784362211658972 0.6093312430031802
    vertex 1.8096053880733831 0.1784362211658972 0.10933124300318031
    vertex 1.8096053880733827 0.1784362211658972 0.6093312430031803
  endloop
endfacet
facet normal 0.0 1.0 0.0
  outer loop
    vertex 1.8096053880733827 1.6784362211658967 0.6093312430031803
    vertex 0.809605388073383 1.6784362211658967 0.10933124300318009
    vertex 0.8096053880733829 1.6784362211658967 0.6093312430031801
  endloop
endfacet
facet normal 0.0 1.0 0.0
  outer loop
    vertex 0.809605388073383 1.6784362211658967 0.10933124300318009
    vertex 1.8096053880733827 1.6784362211658967 0.6093312430031803
    vertex 1.8096053880733831 1.6784362211658967 0.10933124300318031
  endloop
endfacet
facet normal -1.942890293094024e-16 0.0 1.0
  outer loop
    vertex 1.8096053880733827 1.1784362211658967 1.1093312430031803
    vertex 1.3096053880733827 0.6784362211658967 1.10933124300318
    vertex 1.8096053880733827 0.6784362211658967 1.1093312430031803
  endloop
endfacet
facet normal -1.942890293094024e-16 0.0 1.0
  outer loop
    vertex 1.3096053880733827 0.6784362211658967 1.10933124300318
    vertex 1.8096053880733827 1.1784362211658967 1.1093312430031803
    vertex 1.3096053880733827 1.1784362211658967 1.10933124300318
  endloop
endfacet
facet normal -1.942890293094024e-16 0.0 1.0
  outer loop
    vertex 1.8096053880733827 1.6784362211658967 0.6093312430031803
    vertex 1.309605388073383 1.1784362211658967 0.6093312430031802
    vertex 1.8096053880733827 1.1784362211658967 0.6093312430031803
  endloop
endfacet
facet normal -1.942890293094024e-16 0.0 1.0
  outer loop
    vertex 1.309605388073383 1.1784362211658967 0.6093312430031802
    vertex 0.8096053880733829 0.6784362211658967 0.6093312430031801
    vertex 1.309605388073383 0.6784362211658967 0.6093312430031802
  endloop
endfacet
facet normal -1.942890293094024e-16 0.0 1.0
  outer loop
    vertex 0.8096053880733829 0.6784362211658967 0.6093312430031801
    vertex 1.309605388073383 1.1784362211658967 0.6093312430031802
    vertex 0.8096053880733829 1.6784362211658967 0.6093312430031801
  endloop
endfacet
facet normal -1.942890293094024e-16 0.0 1.0
  outer loop
    vertex 0.8096053880733829 1.6784362211658967 0.6093312430031801
    vertex 1.309605388073383 1.1784362211658967 0.6093312430031802
    vertex 1.8096053880733827 1.6784362211658967 0.6093312430031803
  endloop
endfacet
facet normal 0.0 -1.0 0.0
  outer loop
    vertex 1.8096053880733827 0.6784362211658967 0.6093312430031803
    vertex 1.3096053880733827 0.6784362211658967 1.10933124300318
    vertex 1.309605388073383 0.6784362211658967 0.6093312430031802
  endloop
endfacet
facet normal 0.0 -1.0 0.0
  outer loop
    vertex 1.3096053880733827 0.6784362211658967 1.10933124300318
    vertex 1.8096053880733827 0.6784362211658967 0.6093312430031803
    vertex 1.8096053880733827 0.6784362211658967 1.1093312430031803
  endloop
endfacet
facet normal 0.0 1.0 0.0
  outer loop
    vertex 1.8096053880733827 1.1784362211658967 1.1093312430031803
    vertex 1.309605388073383 1.1784362211658967 0.6093312430031802
    vertex 1.3096053880733827 1.1784362211658967 1.10933124300318
  endloop
endfacet
facet normal 0.0 1.0 0.0
  outer loop
    vertex 1.309605388073383 1.1784362211658967 0.6093312430031802
    vertex 1.8096053880733827 1.1784362211658967 1.1093312430031803
    vertex 1.8096053880733827 1.1784362211658967 0.6093312430031803
  endloop
endfacet
facet normal 0.0 -1.0 0.0
  outer loop
    vertex 1.3096053880733831 0.6784362211658967 0.1093312430031802
    vertex 0.8096053880733829 0.6784362211658967 0.6093312430031801
    vertex 0.809605388073383 0.6784362211658967 0.10933124300318009
  endloop
endfacet
facet normal 0.0 -1.0 0.0
  outer loop
    vertex 0.8096053880733829 0.6784362211658967 0.6093312430031801
    vertex 1.3096053880733831 0.6784362211658967 0.1093312430031802
    vertex 1.309605388073383 0.6784362211658967 0.6093312430031802
  endloop
endfacet
facet normal -1.942890293094024e-16 0.0 1.0
  outer loop
    vertex 1.8096053880733827 0.6784362211658967 0.6093312430031803
    vertex 1.309605388073383 0.1784362211658972 0.6093312430031802
    vertex 1.8096053880733827 0.1784362211658972 0.6093312430031803
  endloop
endfacet
facet normal -1.942890293094024e-16 0.0 1.0
  outer loop
    vertex 1.309605388073383 0.1784362211658972 0.6093312430031802
    vertex 1.8096053880733827 0.6784362211658967 0.6093312430031803
    vertex 1.309605388073383 0.6784362211658967 0.6093312430031802
  endloop
endfacet
facet normal -1.0 -0.0 -1.942890293094024e-16
  outer loop
    vertex 1.309605388073383 1.1784362211658967 0.6093312430031802
    vertex 1.3096053880733827 0.6784362211658967 1.10933124300318
    vertex 1.3096053880733827 1.1784362211658967 1.10933124300318
  endloop
endfacet
facet normal -1.0 -0.0 -1.942890293094024e-16
  outer loop
    vertex 1.3096053880733827 0.6784362211658967 1.10933124300318
    vertex 1.309605388073383 1.1784362211658967 0.6093312430031802
    vertex 1.309605388073383 0.6784362211658967 0.6093312430031802
  endloop
endfacet
facet normal -1.0 0.0 -1.942890293094024e-16
  outer loop
    vertex 0.809605388073383 1.6784362211658967 0.10933124300318009
    vertex 0.8096053880733829 0.6784362211658967 0.6093312430031801
    vertex 0.8096053880733829 1.6784362211658967 0.6093312430031801
  endloop
endfacet
facet normal -1.0 0.0 -1.942890293094024e-16
  outer loop
    vertex 0.8096053880733829 0.6784362211658967 0.6093312430031801
    vertex 0.809605388073383 1.6784362211658967 0.10933124300318009
    vertex 0.809605388073383 0.6784362211658967 0.10933124300318009
  endloop
endfacet
facet normal -1.0 0.0 -1.942890293094024e-16
  outer loop
    vertex 1.3096053880733831 0.6784362211658967 0.1093312430031802
    vertex 1.309605388073383 0.1784362211658972 0.6093312430031802
    vertex 1.309605388073383 0.6784362211658967 0.6093312430031802
  endloop
endfacet
facet normal -1.0 0.0 -1.942890293094024e-16
  outer loop
    vertex 1.309605388073383 0.1784362211658972 0.6093312430031802
    vertex 1.3096053880733831 0.6784362211658967 0.1093312430031802
    vertex 1.3096053880733831 0.1784362211658972 0.1093312430031802
  endloop
endfacet
endsolid Untitled-56abdbb5
