solid Untitled-56abdbdb
facet normal 1.0 0.0 -8.326672684688677e-17
  outer loop
    vertex 3.151037673231603 1.5600580552228331 1.1969765637035221
    vertex 3.151037673231603 1.0600580552228331 0.19697656370352212
    vertex 3.151037673231603 1.5600580552228331 0.19697656370352212
  endloop
endfacet
facet normal 1.0 0.0 -8.326672684688677e-17
  outer loop
    vertex 3.151037673231603 1.0600580552228331 0.19697656370352212
    vertex 3.151037673231603 1.5600580552228331 1.1969765637035221
    vertex 3.151037673231603 1.0600580552228331 1.1969765637035221
  endloop
endfacet
facet normal 0.0 -1.0 0.0
  outer loop
    vertex 1.651037673231603 0.5600580552228331 0.6969765637035222
    vertex 2.151037673231603 0.5600580552228331 0.1969765637035222
    vertex 2.151037673231603 0.5600580552228331 0.6969765637035222
  endloop
endfacet
facet normal 0.0 -1.0 0.0
  outer loop
    vertex 2.151037673231603 0.5600580552228331 0.1969765637035222
    vertex 1.651037673231603 0.5600580552228331 0.6969765637035222
    vertex 1.651037673231603 0.5600580552228331 0.19697656370352226
  endloop
endfacet
facet normal -8.326672684688677e-17 0.0 -1.0
  outer loop
    vertex 1.651037673231603 1.5600580552228331 0.19697656370352226
    vertex 2.151037673231603 0.5600580552228331 0.1969765637035222
    vertex 1.651037673231603 0.5600580552228331 0.19697656370352226
  endloop
endfacet
facet normal -8.326672684688677e-17 0.0 -1.0
  outer loop
    vertex 2.151037673231603 0.5600580552228331 0.1969765637035222
    vertex 1.651037673231603 1.5600580552228331 0.19697656370352226
    vertex 2.151037673231603 1.0600580552228331 0.1969765637035222
  endloop
endfacet
facet normal -8.326672684688677e-17 0.0 -1.0
  outer loop
    vertex 2.151037673231603 1.0600580552228331 0.1969765637035222
    vertex 1.651037673231603 1.5600580552228331 0.19697656370352226
    vertex 3.151037673231603 1.0600580552228331 0.19697656370352212
  endloop
endfacet
facet normal -8.326672684688677e-17 0.0 -1.0
  outer loop
    vertex 3.151037673231603 1.0600580552228331 0.19697656370352212
    vertex 1.651037673231603 1.5600580552228331 0.19697656370352226
    vertex 3.151037673231603 1.5600580552228331 0.19697656370352212
  endloop
endfacet
facet normal 8.326672684688677e-17 0.0 1.0
  outer loop
    vertex 2.651037673231603 1.5600580552228331 0.6969765637035221
    vertex 2.151037673231603 1.0600580552228331 0.6969765637035222
    vertex 2.651037673231603 1.0600580552228331 0.6969765637035221
  endloop
endfacet
facet normal 8.326672684688677e-17 0.0 1.0
  outer loop
    vertex 2.151037673231603 1.0600580552228331 0.6969765637035222
    vertex 1.651037673231603 0.5600580552228331 0.6969765637035222
    vertex 2.151037673231603 0.5600580552228331 0.6969765637035222
  endloop
endfacet
facet normal 8.326672684688677e-17 0.0 1.0
  outer loop
    vertex 1.651037673231603 0.5600580552228331 0.6969765637035222
    vertex 2.151037673231603 1.0600580552228331 0.6969765637035222
    vertex 1.651037673231603 1.5600580552228331 0.6969765637035222
  endloop
endfacet
facet normal 8.326672684688677e-17 0.0 1.0
  outer loop
    vertex 1.651037673231603 1.5600580552228331 0.6969765637035222
    vertex 2.151037673231603 1.0600580552228331 0.6969765637035222
    vertex 2.651037673231603 1.5600580552228331 0.6969765637035221
  endloop
endfacet
facet normal -1.0 0.0 8.326672684688677e-17
  outer loop
    vertex 2.651037673231603 1.0600580552228331 1.1969765637035221
    vertex 2.651037673231603 1.5600580552228331 0.6969765637035221
    vertex 2.651037673231603 1.0600580552228331 0.6969765637035221
  endloop
endfacet
facet normal -1.0 0.0 8.326672684688677e-17
  outer loop
    vertex 2.651037673231603 1.5600580552228331 0.6969765637035221
    vertex 2.651037673231603 1.0600580552228331 1.1969765637035221
    vertex 2.651037673231603 1.5600580552228331 1.1969765637035221
  endloop
endfacet
facet normal 0.0 1.0 0.0
  outer loop
    vertex 3.151037673231603 1.5600580552228331 0.19697656370352212
    vertex 2.651037673231603 1.5600580552228331 0.6969765637035221
    vertex 3.151037673231603 1.5600580552228331 1.1969765637035221
  endloop
endfacet
facet normal 0.0 1.0 0.0
  outer loop
    vertex 2.651037673231603 1.5600580552228331 0.6969765637035221
    vertex 3.151037673231603 1.5600580552228331 0.19697656370352212
    vertex 1.651037673231603 1.5600580552228331 0.19697656370352226
  endloop
endfacet
facet normal 0.0 1.0 0.0
  outer loop
    vertex 2.651037673231603 1.5600580552228331 0.6969765637035221
    vertex 1.651037673231603 1.5600580552228331 0.19697656370352226
    vertex 1.651037673231603 1.5600580552228331 0.6969765637035222
  endloop
endfacet
facet normal 0.0 1.0 0.0
  outer loop
    vertex 2.651037673231603 1.5600580552228331 1.1969765637035221
    vertex 3.151037673231603 1.5600580552228331 1.1969765637035221
    vertex 2.651037673231603 1.5600580552228331 0.6969765637035221
  endloop
endfacet
facet normal 8.326672684688677e-17 0.0 1.0
  outer loop
    vertex 3.151037673231603 1.5600580552228331 1.1969765637035221
    vertex 2.651037673231603 1.0600580552228331 1.1969765637035221
    vertex 3.151037673231603 1.0600580552228331 1.1969765637035221
  endloop
endfacet
facet normal 8.326672684688677e-17 0.0 1.0
  outer loop
    vertex 2.651037673231603 1.0600580552228331 1.1969765637035221
    vertex 3.151037673231603 1.5600580552228331 1.1969765637035221
    vertex 2.651037673231603 1.5600580552228331 1.1969765637035221
  endloop
endfacet
facet normal 0.0 -1.0 0.0
  outer loop
    vertex 2.651037673231603 1.0600580552228331 1.1969765637035221
    vertex 3.151037673231603 1.0600580552228331 0.19697656370352212
    vertex 3.151037673231603 1.0600580552228331 1.1969765637035221
  endloop
endfacet
facet normal 0.0 -1.0 0.0
  outer loop
    vertex 3.151037673231603 1.0600580552228331 0.19697656370352212
    vertex 2.651037673231603 1.0600580552228331 1.1969765637035221
    vertex 2.651037673231603 1.0600580552228331 0.6969765637035221
  endloop
endfacet
facet normal 0.0 -1.0 0.0
  outer loop
    vertex 3.151037673231603 1.0600580552228331 0.19697656370352212
    vertex 2.651037673231603 1.0600580552228331 0.6969765637035221
    vertex 2.151037673231603 1.0600580552228331 0.1969765637035222
  endloop
endfacet
facet normal 0.0 -1.0 0.0
  outer loop
    vertex 2.151037673231603 1.0600580552228331 0.1969765637035222
    vertex 2.651037673231603 1.0600580552228331 0.6969765637035221
    vertex 2.151037673231603 1.0600580552228331 0.6969765637035222
  endloop
endfacet
facet normal 1.0 0.0 -8.326672684688677e-17
  outer loop
    vertex 2.151037673231603 1.0600580552228331 0.6969765637035222
    vertex 2.151037673231603 0.5600580552228331 0.1969765637035222
    vertex 2.151037673231603 1.0600580552228331 0.1969765637035222
  endloop
endfacet
facet normal 1.0 0.0 -8.326672684688677e-17
  outer loop
    vertex 2.151037673231603 0.5600580552228331 0.1969765637035222
    vertex 2.151037673231603 1.0600580552228331 0.6969765637035222
    vertex 2.151037673231603 0.5600580552228331 0.6969765637035222
  endloop
endfacet
facet normal -1.0 0.0 8.326672684688677e-17
  outer loop
    vertex 1.651037673231603 0.5600580552228331 0.6969765637035222
    vertex 1.651037673231603 1.5600580552228331 0.19697656370352226
    vertex 1.651037673231603 0.5600580552228331 0.19697656370352226
  endloop
endfacet
facet normal -1.0 0.0 8.326672684688677e-17
  outer loop
    vertex 1.651037673231603 1.5600580552228331 0.19697656370352226
    vertex 1.651037673231603 0.5600580552228331 0.6969765637035222
    vertex 1.651037673231603 1.5600580552228331 0.6969765637035222
  endloop
endfacet
endsolid Untitled-56abdbdb
