solid Untitled-56abdc36
facet normal 1.0 0.0 0.0
  outer loop
    vertex 3.3815835757810158 0.8171366841309375 0.4092823292943879
    vertex 3.3815835757810158 1.3171366841309375 0.9092823292943879
    vertex 3.3815835757810158 0.8171366841309375 0.9092823292943879
  endloop
endfacet
facet normal 1.0 0.0 0.0
  outer loop
    vertex 3.3815835757810158 1.3171366841309375 0.9092823292943879
    vertex 3.3815835757810158 1.8171366841309375 1.409282329294388
    vertex 3.3815835757810158 1.3171366841309375 1.409282329294388
  endloop
endfacet
facet normal 1.0 0.0 0.0
  outer loop
    vertex 3.3815835757810158 1.8171366841309375 1.409282329294388
    vertex 3.3815835757810158 1.3171366841309375 0.9092823292943879
    vertex 3.3815835757810158 1.8171366841309375 0.4092823292943879
  endloop
endfacet
facet normal 1.0 0.0 0.0
  outer loop
    vertex 3.3815835757810158 1.8171366841309375 0.4092823292943879
    vertex 3.3815835757810158 1.3171366841309375 0.9092823292943879
    vertex 3.3815835757810158 0.8171366841309375 0.4092823292943879
  endloop
endfacet
facet normal 0.0 2.7755575615628914e-17 -1.0
  outer loop
    vertex 2.3815835757810158 2.8171366841309373 0.4092823292943879
    vertex 3.3815835757810158 0.8171366841309375 0.4092823292943879
    vertex 2.3815835757810158 0.8171366841309375 0.4092823292943879
  endloop
endfacet
facet normal 0.0 2.7755575615628914e-17 -1.0
  outer loop
    vertex 3.3815835757810158 0.8171366841309375 0.4092823292943879
    vertex 2.3815835757810158 2.8171366841309373 0.4092823292943879
    vertex 2.8815835757810158 1.8171366841309375 0.4092823292943879
  endloop
endfacet
facet normal 0.0 2.7755575615628914e-17 -1.0
  outer loop
    vertex 2.8815835757810158 1.8171366841309375 0.4092823292943879
    vertex 2.3815835757810158 2.8171366841309373 0.4092823292943879
    vertex 2.8815835757810158 2.8171366841309373 0.4092823292943879
  endloop
endfacet
facet normal 0.0 2.7755575615628914e-17 -1.0
  outer loop
    vertex 3.3815835757810158 1.8171366841309375 0.4092823292943879
    vertex 3.3815835757810158 0.8171366841309375 0.4092823292943879
    vertex 2.8815835757810158 1.8171366841309375 0.4092823292943879
  endloop
endfacet
facet normal 0.0 -1.0 -2.7755575615628914e-17
  outer loop
    vertex 3.3815835757810158 1.3171366841309375 0.9092823292943879
    vertex 2.8815835757810158 1.3171366841309375 1.409282329294388
    vertex 2.8815835757810158 1.3171366841309375 0.9092823292943879
  endloop
endfacet
facet normal 0.0 -1.0 -2.7755575615628914e-17
  outer loop
    vertex 2.8815835757810158 1.3171366841309375 1.409282329294388
    vertex 3.3815835757810158 1.3171366841309375 0.9092823292943879
    vertex 3.3815835757810158 1.3171366841309375 1.409282329294388
  endloop
endfacet
facet normal -0.0 -2.7755575615628914e-17 1.0
  outer loop
    vertex 3.3815835757810158 1.8171366841309375 1.409282329294388
    vertex 2.8815835757810158 1.3171366841309375 1.409282329294388
    vertex 3.3815835757810158 1.3171366841309375 1.409282329294388
  endloop
endfacet
facet normal -0.0 -2.7755575615628914e-17 1.0
  outer loop
    vertex 2.8815835757810158 1.3171366841309375 1.409282329294388
    vertex 3.3815835757810158 1.8171366841309375 1.409282329294388
    vertex 2.8815835757810158 1.8171366841309375 1.409282329294388
  endloop
endfacet
facet normal 0.0 1.0 2.7755575615628914e-17
  outer loop
    vertex 3.3815835757810158 1.8171366841309375 1.409282329294388
    vertex 2.8815835757810158 1.8171366841309375 0.9092823292943879
    vertex 2.8815835757810158 1.8171366841309375 1.409282329294388
  endloop
endfacet
facet normal 0.0 1.0 2.7755575615628914e-17
  outer loop
    vertex 2.8815835757810158 1.8171366841309375 0.9092823292943879
    vertex 3.3815835757810158 1.8171366841309375 1.409282329294388
    vertex 2.8815835757810158 1.8171366841309375 0.4092823292943879
  endloop
endfacet
facet normal 0.0 1.0 2.7755575615628914e-17
  outer loop
    vertex 2.8815835757810158 1.8171366841309375 0.4092823292943879
    vertex 3.3815835757810158 1.8171366841309375 1.409282329294388
    vertex 3.3815835757810158 1.8171366841309375 0.4092823292943879
  endloop
endfacet
facet normal 1.0 0.0 0.0
  outer loop
    vertex 2.8815835757810158 1.8171366841309375 0.4092823292943879
    vertex 2.8815835757810158 2.8171366841309373 0.9092823292943879
    vertex 2.8815835757810158 1.8171366841309375 0.9092823292943879
  endloop
endfacet
facet normal 1.0 0.0 0.0
  outer loop
    vertex 2.8815835757810158 2.8171366841309373 0.9092823292943879
    vertex 2.8815835757810158 1.8171366841309375 0.4092823292943879
    vertex 2.8815835757810158 2.8171366841309373 0.4092823292943879
  endloop
endfacet
facet normal 0.0 1.0 2.7755575615628914e-17
  outer loop
    vertex 2.8815835757810158 2.8171366841309373 0.9092823292943879
    vertex 2.3815835757810158 2.8171366841309373 0.4092823292943879
    vertex 2.3815835757810158 2.8171366841309373 0.9092823292943879
  endloop
endfacet
facet normal 0.0 1.0 2.7755575615628914e-17
  outer loop
    vertex 2.3815835757810158 2.8171366841309373 0.4092823292943879
    vertex 2.8815835757810158 2.8171366841309373 0.9092823292943879
    vertex 2.8815835757810158 2.8171366841309373 0.4092823292943879
  endloop
endfacet
facet normal 0.0 -2.7755575615628914e-17 1.0
  outer loop
    vertex 3.3815835757810158 1.3171366841309375 0.9092823292943879
    vertex 2.3815835757810158 0.8171366841309375 0.9092823292943879
    vertex 3.3815835757810158 0.8171366841309375 0.9092823292943879
  endloop
endfacet
facet normal 0.0 -2.7755575615628914e-17 1.0
  outer loop
    vertex 2.3815835757810158 0.8171366841309375 0.9092823292943879
    vertex 3.3815835757810158 1.3171366841309375 0.9092823292943879
    vertex 2.8815835757810158 1.3171366841309375 0.9092823292943879
  endloop
endfacet
facet normal 0.0 -2.7755575615628914e-17 1.0
  outer loop
    vertex 2.3815835757810158 0.8171366841309375 0.9092823292943879
    vertex 2.8815835757810158 1.3171366841309375 0.9092823292943879
    vertex 2.3815835757810158 2.8171366841309373 0.9092823292943879
  endloop
endfacet
facet normal 0.0 -2.7755575615628914e-17 1.0
  outer loop
    vertex 2.3815835757810158 2.8171366841309373 0.9092823292943879
    vertex 2.8815835757810158 1.3171366841309375 0.9092823292943879
    vertex 2.8815835757810158 1.8171366841309375 0.9092823292943879
  endloop
endfacet
facet normal 0.0 -2.7755575615628914e-17 1.0
  outer loop
    vertex 2.3815835757810158 2.8171366841309373 0.9092823292943879
    vertex 2.8815835757810158 1.8171366841309375 0.9092823292943879
    vertex 2.8815835757810158 2.8171366841309373 0.9092823292943879
  endloop
endfacet
facet normal -1.0 0.0 0.0
  outer loop
    vertex 2.8815835757810158 1.8171366841309375 0.9092823292943879
    vertex 2.8815835757810158 1.3171366841309375 1.409282329294388
    vertex 2.8815835757810158 1.8171366841309375 1.409282329294388
  endloop
endfacet
facet normal -1.0 0.0 0.0
  outer loop
    vertex 2.8815835757810158 1.3171366841309375 1.409282329294388
    vertex 2.8815835757810158 1.8171366841309375 0.9092823292943879
    vertex 2.8815835757810158 1.3171366841309375 0.9092823292943879
  endloop
endfacet
facet normal -1.0 0.0 0.0
  outer loop
    vertex 2.3815835757810158 2.8171366841309373 0.4092823292943879
    vertex 2.3815835757810158 0.8171366841309375 0.9092823292943879
    vertex 2.3815835757810158 2.8171366841309373 0.9092823292943879
  endloop
endfacet
facet normal -1.0 0.0 0.0
  outer loop
    vertex 2.3815835757810158 0.8171366841309375 0.9092823292943879
    vertex 2.3815835757810158 2.8171366841309373 0.4092823292943879
    vertex 2.3815835757810158 0.8171366841309375 0.4092823292943879
  endloop
endfacet
facet normal 0.0 -1.0 -2.7755575615628914e-17
  outer loop
    vertex 3.3815835757810158 0.8171366841309375 0.4092823292943879
    vertex 2.3815835757810158 0.8171366841309375 0.9092823292943879
    vertex 2.3815835757810158 0.8171366841309375 0.4092823292943879
  endloop
endfacet
facet normal 0.0 -1.0 -2.7755575615628914e-17
  outer loop
    vertex 2.3815835757810158 0.8171366841309375 0.9092823292943879
    vertex 3.3815835757810158 0.8171366841309375 0.4092823292943879
    vertex 3.3815835757810158 0.8171366841309375 0.9092823292943879
  endloop
endfacet
endsolid Untitled-56abdc36
