solid Untitled-56abdc5c
facet normal 1.0 0.0 0.0
  outer loop
    vertex 1.8264901259234687 0.5355510291599017 0.0
    vertex 1.8264901259234687 0.035551029159901715 2.0
    vertex 1.8264901259234687 0.035551029159901715 0.0
  endloop
endfacet
facet normal 1.0 0.0 0.0
  outer loop
    vertex 1.8264901259234687 0.035551029159901715 2.0
    vertex 1.8264901259234687 0.5355510291599017 0.0
    vertex 1.8264901259234687 0.5355510291599017 2.0
  endloop
endfacet
facet normal 1.0 0.0 0.0
  outer loop
    vertex 1.8264901259234687 0.5355510291599017 2.0
    vertex 1.8264901259234687 0.5355510291599017 0.0
    vertex 1.8264901259234687 0.5355510291599017 0.5
  endloop
endfacet
facet normal 0.0 0.0 -1.0
  outer loop
    vertex 1.3264901259234687 1.0355510291599017 0.0
    vertex 1.8264901259234687 0.5355510291599017 0.0
    vertex 1.3264901259234687 0.035551029159901715 0.0
  endloop
endfacet
facet normal 0.0 0.0 -1.0
  outer loop
    vertex 1.8264901259234687 0.5355510291599017 0.0
    vertex 1.3264901259234687 1.0355510291599017 0.0
    vertex 2.8264901259234687 1.0355510291599017 0.0
  endloop
endfacet
facet normal 0.0 0.0 -1.0
  outer loop
    vertex 1.8264901259234687 0.5355510291599017 0.0
    vertex 2.8264901259234687 1.0355510291599017 0.0
    vertex 2.8264901259234687 0.5355510291599017 0.0
  endloop
endfacet
facet normal 0.0 0.0 -1.0
  outer loop
    vertex 1.8264901259234687 0.035551029159901715 0.0
    vertex 1.3264901259234687 0.035551029159901715 0.0
    vertex 1.8264901259234687 0.5355510291599017 0.0
  endloop
endfacet
facet normal 0.0 0.0 1.0
  outer loop
    vertex 1.8264901259234687 0.035551029159901715 2.0
    vertex 1.3264901259234687 0.5355510291599017 2.0
    vertex 1.3264901259234687 0.035551029159901715 2.0
  endloop
endfacet
facet normal 0.0 0.0 1.0
  outer loop
    vertex 1.3264901259234687 0.5355510291599017 2.0
    vertex 1.8264901259234687 0.035551029159901715 2.0
    vertex 1.8264901259234687 0.5355510291599017 2.0
  endloop
endfacet
facet normal -0.0 -1.0 -0.0
  outer loop
    vertex 1.8264901259234687 0.035551029159901715 2.0
    vertex 1.3264901259234687 0.035551029159901715 0.0
    vertex 1.8264901259234687 0.035551029159901715 0.0
  endloop
endfacet
facet normal -0.0 -1.0 -0.0
  outer loop
    vertex 1.3264901259234687 0.035551029159901715 0.0
    vertex 1.8264901259234687 0.035551029159901715 2.0
    vertex 1.3264901259234687 0.035551029159901715 2.0
  endloop
endfacet
facet normal -1.0 0.0 0.0
  outer loop
    vertex 1.3264901259234687 0.5355510291599017 2.0
    vertex 1.3264901259234687 0.035551029159901715 0.0
    vertex 1.3264901259234687 0.035551029159901715 2.0
  endloop
endfacet
facet normal -1.0 0.0 0.0
  outer loop
    vertex 1.3264901259234687 0.035551029159901715 0.0
    vertex 1.3264901259234687 0.5355510291599017 2.0
    vertex 1.3264901259234687 0.5355510291599017 0.5
  endloop
endfacet
facet normal -1.0 0.0 0.0
  outer loop
    vertex 1.3264901259234687 0.035551029159901715 0.0
    vertex 1.3264901259234687 0.5355510291599017 0.5
    vertex 1.3264901259234687 1.0355510291599017 0.0
  endloop
endfacet
facet normal -1.0 0.0 0.0
  outer loop
    vertex 1.3264901259234687 1.0355510291599017 0.0
    vertex 1.3264901259234687 0.5355510291599017 0.5
    vertex 1.3264901259234687 1.0355510291599017 0.5
  endloop
endfacet
facet normal 0.0 1.0 0.0
  outer loop
    vertex 1.3264901259234687 1.0355510291599017 0.5
    vertex 2.8264901259234687 1.0355510291599017 0.0
    vertex 1.3264901259234687 1.0355510291599017 0.0
  endloop
endfacet
facet normal 0.0 1.0 0.0
  outer loop
    vertex 2.8264901259234687 1.0355510291599017 0.0
    vertex 1.3264901259234687 1.0355510291599017 0.5
    vertex 2.8264901259234687 1.0355510291599017 0.5
  endloop
endfacet
facet normal 0.0 1.0 0.0
  outer loop
    vertex 1.3264901259234687 0.5355510291599017 2.0
    vertex 1.8264901259234687 0.5355510291599017 0.5
    vertex 1.3264901259234687 0.5355510291599017 0.5
  endloop
endfacet
facet normal 0.0 1.0 0.0
  outer loop
    vertex 1.8264901259234687 0.5355510291599017 0.5
    vertex 1.3264901259234687 0.5355510291599017 2.0
    vertex 1.8264901259234687 0.5355510291599017 2.0
  endloop
endfacet
facet normal 1.0 0.0 0.0
  outer loop
    vertex 2.8264901259234687 1.0355510291599017 0.0
    vertex 2.8264901259234687 0.5355510291599017 0.5
    vertex 2.8264901259234687 0.5355510291599017 0.0
  endloop
endfacet
facet normal 1.0 0.0 0.0
  outer loop
    vertex 2.8264901259234687 0.5355510291599017 0.5
    vertex 2.8264901259234687 1.0355510291599017 0.0
    vertex 2.8264901259234687 1.0355510291599017 0.5
  endloop
endfacet
facet normal 0.0 -1.0 0.0
  outer loop
    vertex 2.8264901259234687 0.5355510291599017 0.5
    vertex 1.8264901259234687 0.5355510291599017 0.0
    vertex 2.8264901259234687 0.5355510291599017 0.0
  endloop
endfacet
facet normal 0.0 -1.0 0.0
  outer loop
    vertex 1.8264901259234687 0.5355510291599017 0.0
    vertex 2.8264901259234687 0.5355510291599017 0.5
    vertex 1.8264901259234687 0.5355510291599017 0.5
  endloop
endfacet
facet normal 0.0 0.0 1.0
  outer loop
    vertex 1.8264901259234687 0.5355510291599017 0.5
    vertex 1.3264901259234687 1.0355510291599017 0.5
    vertex 1.3264901259234687 0.5355510291599017 0.5
  endloop
endfacet
facet normal 0.0 0.0 1.0
  outer loop
    vertex 1.3264901259234687 1.0355510291599017 0.5
    vertex 1.8264901259234687 0.5355510291599017 0.5
    vertex 2.8264901259234687 1.0355510291599017 0.5
  endloop
endfacet
facet normal 0.0 0.0 1.0
  outer loop
    vertex 2.8264901259234687 1.0355510291599017 0.5
    vertex 1.8264901259234687 0.5355510291599017 0.5
    vertex 2.8264901259234687 0.5355510291599017 0.5
  endloop
endfacet
endsolid Untitled-56abdc5c
