solid Untitled-56abdc73
facet normal 0.0 0.0 -1.0
  outer loop
    vertex 1.4500190149979435 1.0329650827231187 0.0
    vertex 0.9500190149979435 0.03296508272311871 0.0
    vertex 0.9500190149979435 1.0329650827231187 0.0
  endloop
endfacet
facet normal 0.0 0.0 -1.0
  outer loop
    vertex 0.9500190149979435 0.03296508272311871 0.0
    vertex 1.4500190149979435 1.0329650827231187 0.0
    vertex 1.4500190149979435 0.5329650827231187 0.0
  endloop
endfacet
facet normal 0.0 0.0 -1.0
  outer loop
    vertex 0.9500190149979435 0.03296508272311871 0.0
    vertex 1.4500190149979435 0.5329650827231187 0.0
    vertex 2.4500190149979435 0.03296508272311871 0.0
  endloop
endfacet
facet normal 0.0 0.0 -1.0
  outer loop
    vertex 2.4500190149979435 0.03296508272311871 0.0
    vertex 1.4500190149979435 0.5329650827231187 0.0
    vertex 2.4500190149979435 0.5329650827231187 0.0
  endloop
endfacet
facet normal 0.0 0.0 1.0
  outer loop
    vertex 0.9500190149979435 0.03296508272311871 0.5
    vertex 1.4500190149979435 0.5329650827231187 0.5
    vertex 0.9500190149979435 1.0329650827231187 0.5
  endloop
endfacet
facet normal 0.0 0.0 1.0
  outer loop
    vertex 1.4500190149979435 0.5329650827231187 0.5
    vertex 0.9500190149979435 0.03296508272311871 0.5
    vertex 2.4500190149979435 0.03296508272311871 0.5
  endloop
endfacet
facet normal 0.0 0.0 1.0
  outer loop
    vertex 1.4500190149979435 0.5329650827231187 0.5
    vertex 2.4500190149979435 0.03296508272311871 0.5
    vertex 2.4500190149979435 0.5329650827231187 0.5
  endloop
endfacet
facet normal 0.0 0.0 1.0
  outer loop
    vertex 1.4500190149979435 1.0329650827231187 0.5
    vertex 0.9500190149979435 1.0329650827231187 0.5
    vertex 1.4500190149979435 0.5329650827231187 0.5
  endloop
endfacet
facet normal 0.0 1.0 0.0
  outer loop
    vertex 0.9500190149979435 1.0329650827231187 0.5
    vertex 1.4500190149979435 1.0329650827231187 0.0
    vertex 0.9500190149979435 1.0329650827231187 0.0
  endloop
endfacet
facet normal 0.0 1.0 0.0
  outer loop
    vertex 1.4500190149979435 1.0329650827231187 0.0
    vertex 0.9500190149979435 1.0329650827231187 0.5
    vertex 1.4500190149979435 1.0329650827231187 0.5
  endloop
endfacet
facet normal 0.0 1.0 0.0
  outer loop
    vertex 1.4500190149979435 0.5329650827231187 0.5
    vertex 2.4500190149979435 0.5329650827231187 0.0
    vertex 1.4500190149979435 0.5329650827231187 0.0
  endloop
endfacet
facet normal 0.0 1.0 0.0
  outer loop
    vertex 2.4500190149979435 0.5329650827231187 0.0
    vertex 1.4500190149979435 0.5329650827231187 0.5
    vertex 2.4500190149979435 0.5329650827231187 0.5
  endloop
endfacet
facet normal 1.0 0.0 0.0
  outer loop
    vertex 1.4500190149979435 1.0329650827231187 0.0
    vertex 1.4500190149979435 0.5329650827231187 0.5
    vertex 1.4500190149979435 0.5329650827231187 0.0
  endloop
endfacet
facet normal 1.0 0.0 0.0
  outer loop
    vertex 1.4500190149979435 0.5329650827231187 0.5
    vertex 1.4500190149979435 1.0329650827231187 0.0
    vertex 1.4500190149979435 1.0329650827231187 0.5
  endloop
endfacet
facet normal 1.0 0.0 0.0
  outer loop
    vertex 2.4500190149979435 0.5329650827231187 0.0
    vertex 2.4500190149979435 0.03296508272311871 0.5
    vertex 2.4500190149979435 0.03296508272311871 0.0
  endloop
endfacet
facet normal 1.0 0.0 0.0
  outer loop
    vertex 2.4500190149979435 0.03296508272311871 0.5
    vertex 2.4500190149979435 0.5329650827231187 0.0
    vertex 2.4500190149979435 0.5329650827231187 0.5
  endloop
endfacet
facet normal -0.0 -1.0 -0.0
  outer loop
    vertex 2.4500190149979435 0.03296508272311871 0.5
    vertex 0.9500190149979435 0.03296508272311871 0.0
    vertex 2.4500190149979435 0.03296508272311871 0.0
  endloop
endfacet
facet normal -0.0 -1.0 -0.0
  outer loop
    vertex 0.9500190149979435 0.03296508272311871 0.0
    vertex 2.4500190149979435 0.03296508272311871 0.5
    vertex 0.9500190149979435 0.03296508272311871 0.5
  endloop
endfacet
facet normal -1.0 0.0 0.0
  outer loop
    vertex 0.9500190149979435 1.0329650827231187 0.5
    vertex 0.9500190149979435 0.03296508272311871 0.0
    vertex 0.9500190149979435 0.03296508272311871 0.5
  endloop
endfacet
facet normal -1.0 0.0 0.0
  outer loop
    vertex 0.9500190149979435 0.03296508272311871 0.0
    vertex 0.9500190149979435 1.0329650827231187 0.5
    vertex 0.9500190149979435 1.0329650827231187 0.0
  endloop
endfacet
endsolid Untitled-56abdc73
