solid Untitled-56abdc8e
facet normal -0.0 -1.0 -0.0
  outer loop
    vertex 2.2335765156269627 0.012972959133042639 0.5
    vertex 0.7335765156269627 0.012972959133042639 0.0
    vertex 2.2335765156269627 0.012972959133042639 0.0
  endloop
endfacet
facet normal -0.0 -1.0 -0.0
  outer loop
    vertex 0.7335765156269627 0.012972959133042639 0.0
    vertex 2.2335765156269627 0.012972959133042639 0.5
    vertex 0.7335765156269627 0.012972959133042639 0.5
  endloop
endfacet
facet normal 1.0 0.0 0.0
  outer loop
    vertex 2.2335765156269627 0.5129729591330426 0.0
    vertex 2.2335765156269627 0.012972959133042639 0.5
    vertex 2.2335765156269627 0.012972959133042639 0.0
  endloop
endfacet
facet normal 1.0 0.0 0.0
  outer loop
    vertex 2.2335765156269627 0.012972959133042639 0.5
    vertex 2.2335765156269627 0.5129729591330426 0.0
    vertex 2.2335765156269627 0.5129729591330426 0.5
  endloop
endfacet
facet normal -1.0 0.0 0.0
  outer loop
    vertex 0.7335765156269627 1.0754729591330427 0.5
    vertex 0.7335765156269627 0.012972959133042639 0.0
    vertex 0.7335765156269627 0.012972959133042639 0.5
  endloop
endfacet
facet normal -1.0 0.0 0.0
  outer loop
    vertex 0.7335765156269627 0.012972959133042639 0.0
    vertex 0.7335765156269627 1.0754729591330427 0.5
    vertex 0.7335765156269627 1.0754729591330427 0.0
  endloop
endfacet
facet normal 0.0 1.0 0.0
  outer loop
    vertex 0.7335765156269627 1.0754729591330427 0.5
    vertex 1.7335765156269627 1.0754729591330427 0.0
    vertex 0.7335765156269627 1.0754729591330427 0.0
  endloop
endfacet
facet normal 0.0 1.0 0.0
  outer loop
    vertex 1.7335765156269627 1.0754729591330427 0.0
    vertex 0.7335765156269627 1.0754729591330427 0.5
    vertex 1.7335765156269627 1.0754729591330427 0.5
  endloop
endfacet
facet normal 0.0 0.0 -1.0
  outer loop
    vertex 1.7335765156269627 1.0754729591330427 0.0
    vertex 0.7335765156269627 0.012972959133042639 0.0
    vertex 0.7335765156269627 1.0754729591330427 0.0
  endloop
endfacet
facet normal 0.0 0.0 -1.0
  outer loop
    vertex 0.7335765156269627 0.012972959133042639 0.0
    vertex 1.7335765156269627 1.0754729591330427 0.0
    vertex 1.7335765156269627 0.5129729591330426 0.0
  endloop
endfacet
facet normal 0.0 0.0 -1.0
  outer loop
    vertex 0.7335765156269627 0.012972959133042639 0.0
    vertex 1.7335765156269627 0.5129729591330426 0.0
    vertex 2.2335765156269627 0.012972959133042639 0.0
  endloop
endfacet
facet normal 0.0 0.0 -1.0
  outer loop
    vertex 2.2335765156269627 0.012972959133042639 0.0
    vertex 1.7335765156269627 0.5129729591330426 0.0
    vertex 2.2335765156269627 0.5129729591330426 0.0
  endloop
endfacet
facet normal 0.0 0.0 1.0
  outer loop
    vertex 1.7335765156269627 1.0754729591330427 0.5
    vertex 0.7335765156269627 1.0754729591330427 0.5
    vertex 1.7335765156269627 0.5129729591330426 0.5
  endloop
endfacet
facet normal 0.0 0.0 1.0
  outer loop
    vertex 2.2335765156269627 0.012972959133042639 0.5
    vertex 0.7335765156269627 1.0754729591330427 0.5
    vertex 0.7335765156269627 0.012972959133042639 0.5
  endloop
endfacet
facet normal 0.0 0.0 1.0
  outer loop
    vertex 0.7335765156269627 1.0754729591330427 0.5
    vertex 2.2335765156269627 0.012972959133042639 0.5
    vertex 1.7335765156269627 0.5129729591330426 0.5
  endloop
endfacet
facet normal 0.0 0.0 1.0
  outer loop
    vertex 1.7335765156269627 0.5129729591330426 0.5
    vertex 2.2335765156269627 0.012972959133042639 0.5
    vertex 2.2335765156269627 0.5129729591330426 0.5
  endloop
endfacet
facet normal 1.0 0.0 0.0
  outer loop
    vertex 1.7335765156269627 1.0754729591330427 0.0
    vertex 1.7335765156269627 0.5129729591330426 0.5
    vertex 1.7335765156269627 0.5129729591330426 0.0
  endloop
endfacet
facet normal 1.0 0.0 0.0
  outer loop
    vertex 1.7335765156269627 0.5129729591330426 0.5
    vertex 1.7335765156269627 1.0754729591330427 0.0
    vertex 1.7335765156269627 1.0754729591330427 0.5
  endloop
endfacet
facet normal 0.0 1.0 0.0
  outer loop
    vertex 1.7335765156269627 0.5129729591330426 0.5
    vertex 2.2335765156269627 0.5129729591330426 0.0
    vertex 1.7335765156269627 0.5129729591330426 0.0
  endloop
endfacet
facet normal 0.0 1.0 0.0
  outer loop
    vertex 2.2335765156269627 0.5129729591330426 0.0
    vertex 1.7335765156269627 0.5129729591330426 0.5
    vertex 2.2335765156269627 0.5129729591330426 0.5
  endloop
endfacet
endsolid Untitled-56abdc8e
