solid Untitled-56abdd29
facet normal 0.0 1.0 0.0
  outer loop
    vertex 0.4960186720348396 1.066764107419016 1.0
    vertex 0.9960186720348396 1.066764107419016 0.0
    vertex 0.4960186720348396 1.066764107419016 0.0
  endloop
endfacet
facet normal 0.0 1.0 0.0
  outer loop
    vertex 0.9960186720348396 1.066764107419016 0.0
    vertex 0.4960186720348396 1.066764107419016 1.0
    vertex 0.9960186720348396 1.066764107419016 1.0
  endloop
endfacet
facet normal -0.0 -1.0 -0.0
  outer loop
    vertex 0.9960186720348396 0.06676410741901584 0.5
    vertex 0.4960186720348396 0.06676410741901584 0.0
    vertex 0.9960186720348396 0.06676410741901584 0.0
  endloop
endfacet
facet normal -0.0 -1.0 -0.0
  outer loop
    vertex 0.4960186720348396 0.06676410741901584 0.0
    vertex 0.9960186720348396 0.06676410741901584 0.5
    vertex 0.4960186720348396 0.06676410741901584 0.5
  endloop
endfacet
facet normal 1.0 0.0 0.0
  outer loop
    vertex 0.9960186720348396 1.066764107419016 0.0
    vertex 0.9960186720348396 0.06676410741901584 0.5
    vertex 0.9960186720348396 0.06676410741901584 0.0
  endloop
endfacet
facet normal 1.0 0.0 0.0
  outer loop
    vertex 0.9960186720348396 0.06676410741901584 0.5
    vertex 0.9960186720348396 1.066764107419016 0.0
    vertex 0.9960186720348396 0.5667641074190158 0.5
  endloop
endfacet
facet normal 1.0 0.0 0.0
  outer loop
    vertex 0.9960186720348396 0.5667641074190158 0.5
    vertex 0.9960186720348396 1.066764107419016 0.0
    vertex 0.9960186720348396 0.5667641074190158 1.0
  endloop
endfacet
facet normal 1.0 0.0 0.0
  outer loop
    vertex 0.9960186720348396 0.5667641074190158 1.0
    vertex 0.9960186720348396 1.066764107419016 0.0
    vertex 0.9960186720348396 1.066764107419016 1.0
  endloop
endfacet
facet normal 0.0 0.0 1.0
  outer loop
    vertex 0.9960186720348396 0.06676410741901584 0.5
    vertex 0.4960186720348396 0.5667641074190158 0.5
    vertex 0.4960186720348396 0.06676410741901584 0.5
  endloop
endfacet
facet normal 0.0 0.0 1.0
  outer loop
    vertex 0.4960186720348396 0.5667641074190158 0.5
    vertex 0.9960186720348396 0.06676410741901584 0.5
    vertex 0.9960186720348396 0.5667641074190158 0.5
  endloop
endfacet
facet normal 0.0 0.0 1.0
  outer loop
    vertex 0.9960186720348396 0.5667641074190158 1.0
    vertex 0.4960186720348396 1.066764107419016 1.0
    vertex 0.4960186720348396 0.5667641074190158 1.0
  endloop
endfacet
facet normal 0.0 0.0 1.0
  outer loop
    vertex 0.4960186720348396 1.066764107419016 1.0
    vertex 0.9960186720348396 0.5667641074190158 1.0
    vertex 0.9960186720348396 1.066764107419016 1.0
  endloop
endfacet
facet normal 0.0 -1.0 0.0
  outer loop
    vertex 0.9960186720348396 0.5667641074190158 1.0
    vertex 0.4960186720348396 0.5667641074190158 0.5
    vertex 0.9960186720348396 0.5667641074190158 0.5
  endloop
endfacet
facet normal 0.0 -1.0 0.0
  outer loop
    vertex 0.4960186720348396 0.5667641074190158 0.5
    vertex 0.9960186720348396 0.5667641074190158 1.0
    vertex 0.4960186720348396 0.5667641074190158 1.0
  endloop
endfacet
facet normal 0.0 0.0 -1.0
  outer loop
    vertex 0.9960186720348396 1.066764107419016 0.0
    vertex 0.4960186720348396 0.06676410741901584 0.0
    vertex 0.4960186720348396 1.066764107419016 0.0
  endloop
endfacet
facet normal 0.0 0.0 -1.0
  outer loop
    vertex 0.4960186720348396 0.06676410741901584 0.0
    vertex 0.9960186720348396 1.066764107419016 0.0
    vertex 0.9960186720348396 0.06676410741901584 0.0
  endloop
endfacet
facet normal -1.0 0.0 0.0
  outer loop
    vertex 0.4960186720348396 1.066764107419016 1.0
    vertex 0.4960186720348396 0.5667641074190158 0.5
    vertex 0.4960186720348396 0.5667641074190158 1.0
  endloop
endfacet
facet normal -1.0 0.0 0.0
  outer loop
    vertex 0.4960186720348396 0.5667641074190158 0.5
    vertex 0.4960186720348396 0.06676410741901584 0.0
    vertex 0.4960186720348396 0.06676410741901584 0.5
  endloop
endfacet
facet normal -1.0 0.0 0.0
  outer loop
    vertex 0.4960186720348396 0.06676410741901584 0.0
    vertex 0.4960186720348396 0.5667641074190158 0.5
    vertex 0.4960186720348396 1.066764107419016 0.0
  endloop
endfacet
facet normal -1.0 0.0 0.0
  outer loop
    vertex 0.4960186720348396 1.066764107419016 0.0
    vertex 0.4960186720348396 0.5667641074190158 0.5
    vertex 0.4960186720348396 1.066764107419016 1.0
  endloop
endfacet
endsolid Untitled-56abdd29
