solid Untitled-56abdd5f
facet normal 1.0 0.0 0.0
  outer loop
    vertex 2.3168693463096908 0.05239441052181926 0.9999999999999999
    vertex 2.3168693463096908 0.5523944105218195 0.5
    vertex 2.3168693463096908 0.5523944105218193 1.0
  endloop
endfacet
facet normal 1.0 0.0 0.0
  outer loop
    vertex 2.3168693463096908 0.5523944105218195 0.5
    vertex 2.3168693463096908 0.05239441052181926 0.9999999999999999
    vertex 2.3168693463096908 0.5523944105218197 0.0
  endloop
endfacet
facet normal 1.0 0.0 0.0
  outer loop
    vertex 2.3168693463096908 0.5523944105218197 0.0
    vertex 2.3168693463096908 0.05239441052181926 0.9999999999999999
    vertex 2.3168693463096908 0.05239441052181959 -2.220446049250313e-16
  endloop
endfacet
facet normal 0.0 -3.885780586188047e-16 1.0
  outer loop
    vertex 2.3168693463096908 0.5523944105218195 0.5
    vertex 1.8168693463096908 1.0523944105218195 0.5000000000000002
    vertex 1.8168693463096908 0.5523944105218195 0.5
  endloop
endfacet
facet normal 0.0 -3.885780586188047e-16 1.0
  outer loop
    vertex 1.8168693463096908 1.0523944105218195 0.5000000000000002
    vertex 2.3168693463096908 0.5523944105218195 0.5
    vertex 2.8168693463096908 1.0523944105218195 0.5000000000000002
  endloop
endfacet
facet normal 0.0 -3.885780586188047e-16 1.0
  outer loop
    vertex 2.8168693463096908 1.0523944105218195 0.5000000000000002
    vertex 2.3168693463096908 0.5523944105218195 0.5
    vertex 2.8168693463096908 0.5523944105218195 0.5
  endloop
endfacet
facet normal 0.0 -3.885780586188047e-16 1.0
  outer loop
    vertex 2.3168693463096908 0.05239441052181926 0.9999999999999999
    vertex 1.8168693463096908 0.5523944105218193 1.0
    vertex 1.8168693463096908 0.05239441052181926 0.9999999999999999
  endloop
endfacet
facet normal 0.0 -3.885780586188047e-16 1.0
  outer loop
    vertex 1.8168693463096908 0.5523944105218193 1.0
    vertex 2.3168693463096908 0.05239441052181926 0.9999999999999999
    vertex 2.3168693463096908 0.5523944105218193 1.0
  endloop
endfacet
facet normal 0.0 -1.0 -3.885780586188047e-16
  outer loop
    vertex 1.8168693463096908 0.05239441052181959 -2.220446049250313e-16
    vertex 2.3168693463096908 0.05239441052181926 0.9999999999999999
    vertex 1.8168693463096908 0.05239441052181926 0.9999999999999999
  endloop
endfacet
facet normal 0.0 -1.0 -3.885780586188047e-16
  outer loop
    vertex 2.3168693463096908 0.05239441052181926 0.9999999999999999
    vertex 1.8168693463096908 0.05239441052181959 -2.220446049250313e-16
    vertex 2.3168693463096908 0.05239441052181959 -2.220446049250313e-16
  endloop
endfacet
facet normal -0.0 1.0 3.885780586188047e-16
  outer loop
    vertex 2.8168693463096908 1.0523944105218197 2.220446049250313e-16
    vertex 1.8168693463096908 1.0523944105218195 0.5000000000000002
    vertex 2.8168693463096908 1.0523944105218195 0.5000000000000002
  endloop
endfacet
facet normal -0.0 1.0 3.885780586188047e-16
  outer loop
    vertex 1.8168693463096908 1.0523944105218195 0.5000000000000002
    vertex 2.8168693463096908 1.0523944105218197 2.220446049250313e-16
    vertex 1.8168693463096908 1.0523944105218197 2.220446049250313e-16
  endloop
endfacet
facet normal 0.0 3.885780586188047e-16 -1.0
  outer loop
    vertex 2.8168693463096908 1.0523944105218197 2.220446049250313e-16
    vertex 1.8168693463096908 0.05239441052181959 -2.220446049250313e-16
    vertex 1.8168693463096908 1.0523944105218197 2.220446049250313e-16
  endloop
endfacet
facet normal 0.0 3.885780586188047e-16 -1.0
  outer loop
    vertex 1.8168693463096908 0.05239441052181959 -2.220446049250313e-16
    vertex 2.8168693463096908 1.0523944105218197 2.220446049250313e-16
    vertex 2.3168693463096908 0.5523944105218197 0.0
  endloop
endfacet
facet normal 0.0 3.885780586188047e-16 -1.0
  outer loop
    vertex 2.3168693463096908 0.5523944105218197 0.0
    vertex 2.8168693463096908 1.0523944105218197 2.220446049250313e-16
    vertex 2.8168693463096908 0.5523944105218197 0.0
  endloop
endfacet
facet normal 0.0 3.885780586188047e-16 -1.0
  outer loop
    vertex 2.3168693463096908 0.05239441052181959 -2.220446049250313e-16
    vertex 1.8168693463096908 0.05239441052181959 -2.220446049250313e-16
    vertex 2.3168693463096908 0.5523944105218197 0.0
  endloop
endfacet
facet normal -1.0 0.0 -0.0
  outer loop
    vertex 1.8168693463096908 0.05239441052181959 -2.220446049250313e-16
    vertex 1.8168693463096908 1.0523944105218195 0.5000000000000002
    vertex 1.8168693463096908 1.0523944105218197 2.220446049250313e-16
  endloop
endfacet
facet normal -1.0 0.0 -0.0
  outer loop
    vertex 1.8168693463096908 1.0523944105218195 0.5000000000000002
    vertex 1.8168693463096908 0.05239441052181959 -2.220446049250313e-16
    vertex 1.8168693463096908 0.5523944105218195 0.5
  endloop
endfacet
facet normal -1.0 0.0 -0.0
  outer loop
    vertex 1.8168693463096908 0.5523944105218195 0.5
    vertex 1.8168693463096908 0.05239441052181959 -2.220446049250313e-16
    vertex 1.8168693463096908 0.5523944105218193 1.0
  endloop
endfacet
facet normal -1.0 0.0 -0.0
  outer loop
    vertex 1.8168693463096908 0.5523944105218193 1.0
    vertex 1.8168693463096908 0.05239441052181959 -2.220446049250313e-16
    vertex 1.8168693463096908 0.05239441052181926 0.9999999999999999
  endloop
endfacet
facet normal 1.0 0.0 0.0
  outer loop
    vertex 2.8168693463096908 0.5523944105218195 0.5
    vertex 2.8168693463096908 1.0523944105218197 2.220446049250313e-16
    vertex 2.8168693463096908 1.0523944105218195 0.5000000000000002
  endloop
endfacet
facet normal 1.0 0.0 0.0
  outer loop
    vertex 2.8168693463096908 1.0523944105218197 2.220446049250313e-16
    vertex 2.8168693463096908 0.5523944105218195 0.5
    vertex 2.8168693463096908 0.5523944105218197 0.0
  endloop
endfacet
facet normal 0.0 -1.0 -3.885780586188047e-16
  outer loop
    vertex 2.3168693463096908 0.5523944105218197 0.0
    vertex 2.8168693463096908 0.5523944105218195 0.5
    vertex 2.3168693463096908 0.5523944105218195 0.5
  endloop
endfacet
facet normal 0.0 -1.0 -3.885780586188047e-16
  outer loop
    vertex 2.8168693463096908 0.5523944105218195 0.5
    vertex 2.3168693463096908 0.5523944105218197 0.0
    vertex 2.8168693463096908 0.5523944105218197 0.0
  endloop
endfacet
facet normal -0.0 1.0 3.885780586188047e-16
  outer loop
    vertex 2.3168693463096908 0.5523944105218195 0.5
    vertex 1.8168693463096908 0.5523944105218193 1.0
    vertex 2.3168693463096908 0.5523944105218193 1.0
  endloop
endfacet
facet normal -0.0 1.0 3.885780586188047e-16
  outer loop
    vertex 1.8168693463096908 0.5523944105218193 1.0
    vertex 2.3168693463096908 0.5523944105218195 0.5
    vertex 1.8168693463096908 0.5523944105218195 0.5
  endloop
endfacet
endsolid Untitled-56abdd5f
