solid Untitled-56abdd86
facet normal -1.0 0.0 -0.0
  outer loop
    vertex 1.2912796899912564 1.6438582574979126 4.440892098500626e-16
    vertex 1.2912796899912564 1.1438582574979128 0.5000000000000002
    vertex 1.2912796899912564 1.6438582574979121 1.0000000000000004
  endloop
endfacet
facet normal -1.0 0.0 -0.0
  outer loop
    vertex 1.2912796899912564 1.1438582574979128 0.5000000000000002
    vertex 1.2912796899912564 1.6438582574979126 4.440892098500626e-16
    vertex 1.2912796899912564 0.14385825749791303 0.0
  endloop
endfacet
facet normal -1.0 0.0 -0.0
  outer loop
    vertex 1.2912796899912564 1.1438582574979128 0.5000000000000002
    vertex 1.2912796899912564 0.14385825749791303 0.0
    vertex 1.2912796899912564 0.1438582574979128 0.4999999999999999
  endloop
endfacet
facet normal -1.0 0.0 -0.0
  outer loop
    vertex 1.2912796899912564 1.1438582574979126 1.0000000000000002
    vertex 1.2912796899912564 1.6438582574979121 1.0000000000000004
    vertex 1.2912796899912564 1.1438582574979128 0.5000000000000002
  endloop
endfacet
facet normal 0.0 -1.0 -3.608224830031759e-16
  outer loop
    vertex 1.2912796899912564 0.14385825749791303 0.0
    vertex 1.7912796899912564 0.1438582574979128 0.4999999999999999
    vertex 1.2912796899912564 0.1438582574979128 0.4999999999999999
  endloop
endfacet
facet normal 0.0 -1.0 -3.608224830031759e-16
  outer loop
    vertex 1.7912796899912564 0.1438582574979128 0.4999999999999999
    vertex 2.2912796899912564 0.1438582574979126 0.9999999999999999
    vertex 1.7912796899912564 0.1438582574979126 0.9999999999999999
  endloop
endfacet
facet normal 0.0 -1.0 -3.608224830031759e-16
  outer loop
    vertex 2.2912796899912564 0.1438582574979126 0.9999999999999999
    vertex 1.7912796899912564 0.1438582574979128 0.4999999999999999
    vertex 2.2912796899912564 0.14385825749791303 0.0
  endloop
endfacet
facet normal 0.0 -1.0 -3.608224830031759e-16
  outer loop
    vertex 2.2912796899912564 0.14385825749791303 0.0
    vertex 1.7912796899912564 0.1438582574979128 0.4999999999999999
    vertex 1.2912796899912564 0.14385825749791303 0.0
  endloop
endfacet
facet normal 1.0 0.0 0.0
  outer loop
    vertex 2.2912796899912564 0.1438582574979126 0.9999999999999999
    vertex 2.2912796899912564 0.6438582574979128 0.5000000000000001
    vertex 2.2912796899912564 0.6438582574979126 1.0
  endloop
endfacet
facet normal 1.0 0.0 0.0
  outer loop
    vertex 2.2912796899912564 0.6438582574979128 0.5000000000000001
    vertex 2.2912796899912564 1.1438582574979126 2.220446049250313e-16
    vertex 2.2912796899912564 1.1438582574979124 0.5000000000000002
  endloop
endfacet
facet normal 1.0 0.0 0.0
  outer loop
    vertex 2.2912796899912564 1.1438582574979126 2.220446049250313e-16
    vertex 2.2912796899912564 0.6438582574979128 0.5000000000000001
    vertex 2.2912796899912564 0.14385825749791303 0.0
  endloop
endfacet
facet normal 1.0 0.0 0.0
  outer loop
    vertex 2.2912796899912564 0.14385825749791303 0.0
    vertex 2.2912796899912564 0.6438582574979128 0.5000000000000001
    vertex 2.2912796899912564 0.1438582574979126 0.9999999999999999
  endloop
endfacet
facet normal 0.0 3.608224830031759e-16 -1.0
  outer loop
    vertex 1.7912796899912564 1.6438582574979126 4.440892098500626e-16
    vertex 1.2912796899912564 0.14385825749791303 0.0
    vertex 1.2912796899912564 1.6438582574979126 4.440892098500626e-16
  endloop
endfacet
facet normal 0.0 3.608224830031759e-16 -1.0
  outer loop
    vertex 1.2912796899912564 0.14385825749791303 0.0
    vertex 1.7912796899912564 1.6438582574979126 4.440892098500626e-16
    vertex 1.7912796899912564 1.1438582574979126 2.220446049250313e-16
  endloop
endfacet
facet normal 0.0 3.608224830031759e-16 -1.0
  outer loop
    vertex 1.2912796899912564 0.14385825749791303 0.0
    vertex 1.7912796899912564 1.1438582574979126 2.220446049250313e-16
    vertex 2.2912796899912564 0.14385825749791303 0.0
  endloop
endfacet
facet normal 0.0 3.608224830031759e-16 -1.0
  outer loop
    vertex 2.2912796899912564 0.14385825749791303 0.0
    vertex 1.7912796899912564 1.1438582574979126 2.220446049250313e-16
    vertex 2.2912796899912564 1.1438582574979126 2.220446049250313e-16
  endloop
endfacet
facet normal 0.0 -3.608224830031759e-16 1.0
  outer loop
    vertex 1.7912796899912564 0.1438582574979128 0.4999999999999999
    vertex 1.2912796899912564 1.1438582574979128 0.5000000000000002
    vertex 1.2912796899912564 0.1438582574979128 0.4999999999999999
  endloop
endfacet
facet normal 0.0 -3.608224830031759e-16 1.0
  outer loop
    vertex 1.2912796899912564 1.1438582574979128 0.5000000000000002
    vertex 1.7912796899912564 0.1438582574979128 0.4999999999999999
    vertex 1.7912796899912564 1.1438582574979124 0.5000000000000002
  endloop
endfacet
facet normal 0.0 -3.608224830031759e-16 1.0
  outer loop
    vertex 1.7912796899912564 1.1438582574979124 0.5000000000000002
    vertex 1.7912796899912564 0.1438582574979128 0.4999999999999999
    vertex 1.7912796899912564 0.6438582574979128 0.5000000000000001
  endloop
endfacet
facet normal 0.0 -3.608224830031759e-16 1.0
  outer loop
    vertex 1.7912796899912564 1.1438582574979124 0.5000000000000002
    vertex 1.7912796899912564 0.6438582574979128 0.5000000000000001
    vertex 2.2912796899912564 0.6438582574979128 0.5000000000000001
  endloop
endfacet
facet normal 0.0 -3.608224830031759e-16 1.0
  outer loop
    vertex 1.7912796899912564 1.1438582574979124 0.5000000000000002
    vertex 2.2912796899912564 0.6438582574979128 0.5000000000000001
    vertex 2.2912796899912564 1.1438582574979124 0.5000000000000002
  endloop
endfacet
facet normal 0.0 1.0 3.608224830031759e-16
  outer loop
    vertex 2.2912796899912564 1.1438582574979126 2.220446049250313e-16
    vertex 1.7912796899912564 1.1438582574979124 0.5000000000000002
    vertex 2.2912796899912564 1.1438582574979124 0.5000000000000002
  endloop
endfacet
facet normal 0.0 1.0 3.608224830031759e-16
  outer loop
    vertex 1.7912796899912564 1.1438582574979124 0.5000000000000002
    vertex 2.2912796899912564 1.1438582574979126 2.220446049250313e-16
    vertex 1.7912796899912564 1.1438582574979126 2.220446049250313e-16
  endloop
endfacet
facet normal 0.0 -3.608224830031759e-16 1.0
  outer loop
    vertex 1.7912796899912564 1.1438582574979121 1.0000000000000002
    vertex 1.2912796899912564 1.6438582574979121 1.0000000000000004
    vertex 1.2912796899912564 1.1438582574979126 1.0000000000000002
  endloop
endfacet
facet normal 0.0 -3.608224830031759e-16 1.0
  outer loop
    vertex 1.2912796899912564 1.6438582574979121 1.0000000000000004
    vertex 1.7912796899912564 1.1438582574979121 1.0000000000000002
    vertex 1.7912796899912564 1.6438582574979121 1.0000000000000004
  endloop
endfacet
facet normal -0.0 1.0 3.608224830031759e-16
  outer loop
    vertex 2.2912796899912564 0.6438582574979128 0.5000000000000001
    vertex 1.7912796899912564 0.6438582574979126 1.0
    vertex 2.2912796899912564 0.6438582574979126 1.0
  endloop
endfacet
facet normal -0.0 1.0 3.608224830031759e-16
  outer loop
    vertex 1.7912796899912564 0.6438582574979126 1.0
    vertex 2.2912796899912564 0.6438582574979128 0.5000000000000001
    vertex 1.7912796899912564 0.6438582574979128 0.5000000000000001
  endloop
endfacet
facet normal -1.0 0.0 -0.0
  outer loop
    vertex 1.7912796899912564 0.1438582574979128 0.4999999999999999
    vertex 1.7912796899912564 0.6438582574979126 1.0
    vertex 1.7912796899912564 0.6438582574979128 0.5000000000000001
  endloop
endfacet
facet normal -1.0 0.0 -0.0
  outer loop
    vertex 1.7912796899912564 0.6438582574979126 1.0
    vertex 1.7912796899912564 0.1438582574979128 0.4999999999999999
    vertex 1.7912796899912564 0.1438582574979126 0.9999999999999999
  endloop
endfacet
facet normal 0.0 1.0 3.608224830031759e-16
  outer loop
    vertex 1.7912796899912564 1.6438582574979126 4.440892098500626e-16
    vertex 1.2912796899912564 1.6438582574979121 1.0000000000000004
    vertex 1.7912796899912564 1.6438582574979121 1.0000000000000004
  endloop
endfacet
facet normal 0.0 1.0 3.608224830031759e-16
  outer loop
    vertex 1.2912796899912564 1.6438582574979121 1.0000000000000004
    vertex 1.7912796899912564 1.6438582574979126 4.440892098500626e-16
    vertex 1.2912796899912564 1.6438582574979126 4.440892098500626e-16
  endloop
endfacet
facet normal 1.0 0.0 0.0
  outer loop
    vertex 1.7912796899912564 1.1438582574979121 1.0000000000000002
    vertex 1.7912796899912564 1.6438582574979126 4.440892098500626e-16
    vertex 1.7912796899912564 1.6438582574979121 1.0000000000000004
  endloop
endfacet
facet normal 1.0 0.0 0.0
  outer loop
    vertex 1.7912796899912564 1.6438582574979126 4.440892098500626e-16
    vertex 1.7912796899912564 1.1438582574979121 1.0000000000000002
    vertex 1.7912796899912564 1.1438582574979126 2.220446049250313e-16
  endloop
endfacet
facet normal 1.0 0.0 0.0
  outer loop
    vertex 1.7912796899912564 1.1438582574979126 2.220446049250313e-16
    vertex 1.7912796899912564 1.1438582574979121 1.0000000000000002
    vertex 1.7912796899912564 1.1438582574979124 0.5000000000000002
  endloop
endfacet
facet normal -8.881784197001252e-16 -1.0 -3.608224830031759e-16
  outer loop
    vertex 1.2912796899912564 1.1438582574979128 0.5000000000000002
    vertex 1.7912796899912564 1.1438582574979121 1.0000000000000002
    vertex 1.2912796899912564 1.1438582574979126 1.0000000000000002
  endloop
endfacet
facet normal -8.881784197001252e-16 -1.0 -3.608224830031759e-16
  outer loop
    vertex 1.7912796899912564 1.1438582574979121 1.0000000000000002
    vertex 1.2912796899912564 1.1438582574979128 0.5000000000000002
    vertex 1.7912796899912564 1.1438582574979124 0.5000000000000002
  endloop
endfacet
facet normal 0.0 -3.608224830031759e-16 1.0
  outer loop
    vertex 2.2912796899912564 0.1438582574979126 0.9999999999999999
    vertex 1.7912796899912564 0.6438582574979126 1.0
    vertex 1.7912796899912564 0.1438582574979126 0.9999999999999999
  endloop
endfacet
facet normal 0.0 -3.608224830031759e-16 1.0
  outer loop
    vertex 1.7912796899912564 0.6438582574979126 1.0
    vertex 2.2912796899912564 0.1438582574979126 0.9999999999999999
    vertex 2.2912796899912564 0.6438582574979126 1.0
  endloop
endfacet
endsolid Untitled-56abdd86
