solid Untitled-56abdda6
facet normal 0.0 9.714451465470122e-17 1.0
  outer loop
    vertex 3.7085549954942074 0.8675177685629534 1.2484774607172762
    vertex 3.2085549954942074 1.3675177685629534 1.2484774607172762
    vertex 3.2085549954942074 0.8675177685629534 1.2484774607172762
  endloop
endfacet
facet normal 0.0 9.714451465470122e-17 1.0
  outer loop
    vertex 3.2085549954942074 1.3675177685629534 1.2484774607172762
    vertex 3.7085549954942074 0.8675177685629534 1.2484774607172762
    vertex 3.7085549954942074 1.3675177685629534 1.2484774607172762
  endloop
endfacet
facet normal 0.0 -1.0 9.714451465470122e-17
  outer loop
    vertex 3.2085549954942074 0.8675177685629533 0.7484774607172762
    vertex 3.7085549954942074 0.8675177685629534 1.2484774607172762
    vertex 3.2085549954942074 0.8675177685629534 1.2484774607172762
  endloop
endfacet
facet normal 0.0 -1.0 9.714451465470122e-17
  outer loop
    vertex 3.7085549954942074 0.8675177685629534 1.2484774607172762
    vertex 3.2085549954942074 0.8675177685629533 0.7484774607172762
    vertex 3.7085549954942074 0.8675177685629533 0.24847746071727617
  endloop
endfacet
facet normal 0.0 -1.0 9.714451465470122e-17
  outer loop
    vertex 3.7085549954942074 0.8675177685629533 0.24847746071727617
    vertex 3.2085549954942074 0.8675177685629533 0.7484774607172762
    vertex 3.2085549954942074 0.8675177685629533 0.24847746071727617
  endloop
endfacet
facet normal 0.0 9.714451465470122e-17 1.0
  outer loop
    vertex 3.2085549954942074 0.8675177685629533 0.7484774607172762
    vertex 2.7085549954942074 1.3675177685629534 0.7484774607172762
    vertex 2.7085549954942074 0.8675177685629533 0.7484774607172762
  endloop
endfacet
facet normal 0.0 9.714451465470122e-17 1.0
  outer loop
    vertex 2.7085549954942074 1.3675177685629534 0.7484774607172762
    vertex 3.2085549954942074 0.8675177685629533 0.7484774607172762
    vertex 3.2085549954942074 1.3675177685629534 0.7484774607172762
  endloop
endfacet
facet normal 0.0 1.0 -9.714451465470122e-17
  outer loop
    vertex 3.7085549954942074 1.3675177685629532 0.24847746071727617
    vertex 3.2085549954942074 1.3675177685629534 1.2484774607172762
    vertex 3.7085549954942074 1.3675177685629534 1.2484774607172762
  endloop
endfacet
facet normal 0.0 1.0 -9.714451465470122e-17
  outer loop
    vertex 3.2085549954942074 1.3675177685629534 1.2484774607172762
    vertex 3.7085549954942074 1.3675177685629532 0.24847746071727617
    vertex 3.2085549954942074 1.3675177685629534 0.7484774607172762
  endloop
endfacet
facet normal 0.0 1.0 -9.714451465470122e-17
  outer loop
    vertex 3.2085549954942074 1.3675177685629534 0.7484774607172762
    vertex 3.7085549954942074 1.3675177685629532 0.24847746071727617
    vertex 2.7085549954942074 1.3675177685629534 0.7484774607172762
  endloop
endfacet
facet normal 0.0 1.0 -9.714451465470122e-17
  outer loop
    vertex 2.7085549954942074 1.3675177685629534 0.7484774607172762
    vertex 3.7085549954942074 1.3675177685629532 0.24847746071727617
    vertex 2.7085549954942074 1.3675177685629532 0.24847746071727617
  endloop
endfacet
facet normal 0.0 -9.714451465470122e-17 -1.0
  outer loop
    vertex 3.7085549954942074 1.3675177685629532 0.24847746071727617
    vertex 2.7085549954942074 0.36751776856295315 0.24847746071727617
    vertex 2.7085549954942074 1.3675177685629532 0.24847746071727617
  endloop
endfacet
facet normal 0.0 -9.714451465470122e-17 -1.0
  outer loop
    vertex 2.7085549954942074 0.36751776856295315 0.24847746071727617
    vertex 3.7085549954942074 1.3675177685629532 0.24847746071727617
    vertex 3.2085549954942074 0.8675177685629533 0.24847746071727617
  endloop
endfacet
facet normal 0.0 -9.714451465470122e-17 -1.0
  outer loop
    vertex 3.2085549954942074 0.8675177685629533 0.24847746071727617
    vertex 3.7085549954942074 1.3675177685629532 0.24847746071727617
    vertex 3.7085549954942074 0.8675177685629533 0.24847746071727617
  endloop
endfacet
facet normal 0.0 -9.714451465470122e-17 -1.0
  outer loop
    vertex 3.2085549954942074 0.36751776856295315 0.24847746071727617
    vertex 2.7085549954942074 0.36751776856295315 0.24847746071727617
    vertex 3.2085549954942074 0.8675177685629533 0.24847746071727617
  endloop
endfacet
facet normal -1.0 -0.0 0.0
  outer loop
    vertex 3.2085549954942074 0.8675177685629533 0.7484774607172762
    vertex 3.2085549954942074 1.3675177685629534 1.2484774607172762
    vertex 3.2085549954942074 1.3675177685629534 0.7484774607172762
  endloop
endfacet
facet normal -1.0 -0.0 0.0
  outer loop
    vertex 3.2085549954942074 1.3675177685629534 1.2484774607172762
    vertex 3.2085549954942074 0.8675177685629533 0.7484774607172762
    vertex 3.2085549954942074 0.8675177685629534 1.2484774607172762
  endloop
endfacet
facet normal 1.0 0.0 0.0
  outer loop
    vertex 3.7085549954942074 0.8675177685629534 1.2484774607172762
    vertex 3.7085549954942074 1.3675177685629532 0.24847746071727617
    vertex 3.7085549954942074 1.3675177685629534 1.2484774607172762
  endloop
endfacet
facet normal 1.0 0.0 0.0
  outer loop
    vertex 3.7085549954942074 1.3675177685629532 0.24847746071727617
    vertex 3.7085549954942074 0.8675177685629534 1.2484774607172762
    vertex 3.7085549954942074 0.8675177685629533 0.24847746071727617
  endloop
endfacet
facet normal 0.0 -1.0 9.714451465470122e-17
  outer loop
    vertex 2.7085549954942074 0.36751776856295315 0.24847746071727617
    vertex 3.2085549954942074 0.3675177685629534 1.7484774607172762
    vertex 2.7085549954942074 0.3675177685629534 1.7484774607172762
  endloop
endfacet
facet normal 0.0 -1.0 9.714451465470122e-17
  outer loop
    vertex 3.2085549954942074 0.3675177685629534 1.7484774607172762
    vertex 2.7085549954942074 0.36751776856295315 0.24847746071727617
    vertex 3.2085549954942074 0.36751776856295315 0.24847746071727617
  endloop
endfacet
facet normal 1.0 0.0 0.0
  outer loop
    vertex 3.2085549954942074 0.3675177685629534 1.7484774607172762
    vertex 3.2085549954942074 0.8675177685629534 1.2484774607172762
    vertex 3.2085549954942074 0.8675177685629534 1.7484774607172762
  endloop
endfacet
facet normal 1.0 0.0 0.0
  outer loop
    vertex 3.2085549954942074 0.8675177685629534 1.2484774607172762
    vertex 3.2085549954942074 0.3675177685629534 1.7484774607172762
    vertex 3.2085549954942074 0.8675177685629533 0.7484774607172762
  endloop
endfacet
facet normal 1.0 0.0 0.0
  outer loop
    vertex 3.2085549954942074 0.8675177685629533 0.7484774607172762
    vertex 3.2085549954942074 0.3675177685629534 1.7484774607172762
    vertex 3.2085549954942074 0.8675177685629533 0.24847746071727617
  endloop
endfacet
facet normal 1.0 0.0 0.0
  outer loop
    vertex 3.2085549954942074 0.8675177685629533 0.24847746071727617
    vertex 3.2085549954942074 0.3675177685629534 1.7484774607172762
    vertex 3.2085549954942074 0.36751776856295315 0.24847746071727617
  endloop
endfacet
facet normal -1.0 -0.0 0.0
  outer loop
    vertex 2.7085549954942074 0.36751776856295315 0.24847746071727617
    vertex 2.7085549954942074 1.3675177685629534 0.7484774607172762
    vertex 2.7085549954942074 1.3675177685629532 0.24847746071727617
  endloop
endfacet
facet normal -1.0 -0.0 0.0
  outer loop
    vertex 2.7085549954942074 1.3675177685629534 0.7484774607172762
    vertex 2.7085549954942074 0.36751776856295315 0.24847746071727617
    vertex 2.7085549954942074 0.8675177685629533 0.7484774607172762
  endloop
endfacet
facet normal -1.0 -0.0 0.0
  outer loop
    vertex 2.7085549954942074 0.8675177685629533 0.7484774607172762
    vertex 2.7085549954942074 0.36751776856295315 0.24847746071727617
    vertex 2.7085549954942074 0.8675177685629534 1.7484774607172762
  endloop
endfacet
facet normal -1.0 -0.0 0.0
  outer loop
    vertex 2.7085549954942074 0.8675177685629534 1.7484774607172762
    vertex 2.7085549954942074 0.36751776856295315 0.24847746071727617
    vertex 2.7085549954942074 0.3675177685629534 1.7484774607172762
  endloop
endfacet
facet normal 0.0 1.0 -9.714451465470122e-17
  outer loop
    vertex 3.2085549954942074 0.8675177685629534 1.2484774607172762
    vertex 2.7085549954942074 0.8675177685629534 1.7484774607172762
    vertex 3.2085549954942074 0.8675177685629534 1.7484774607172762
  endloop
endfacet
facet normal 0.0 1.0 -9.714451465470122e-17
  outer loop
    vertex 2.7085549954942074 0.8675177685629534 1.7484774607172762
    vertex 3.2085549954942074 0.8675177685629534 1.2484774607172762
    vertex 2.7085549954942074 0.8675177685629533 0.7484774607172762
  endloop
endfacet
facet normal 0.0 1.0 -9.714451465470122e-17
  outer loop
    vertex 2.7085549954942074 0.8675177685629533 0.7484774607172762
    vertex 3.2085549954942074 0.8675177685629534 1.2484774607172762
    vertex 3.2085549954942074 0.8675177685629533 0.7484774607172762
  endloop
endfacet
facet normal 0.0 9.714451465470122e-17 1.0
  outer loop
    vertex 3.2085549954942074 0.3675177685629534 1.7484774607172762
    vertex 2.7085549954942074 0.8675177685629534 1.7484774607172762
    vertex 2.7085549954942074 0.3675177685629534 1.7484774607172762
  endloop
endfacet
facet normal 0.0 9.714451465470122e-17 1.0
  outer loop
    vertex 2.7085549954942074 0.8675177685629534 1.7484774607172762
    vertex 3.2085549954942074 0.3675177685629534 1.7484774607172762
    vertex 3.2085549954942074 0.8675177685629534 1.7484774607172762
  endloop
endfacet
endsolid Untitled-56abdda6
