solid Untitled-56b3e713
facet normal -1.0 0.0 0.0
  outer loop
    vertex 1.5 1.0 1.5
    vertex 1.5 0.5 1.0
    vertex 1.5 0.5 1.5
  endloop
endfacet
facet normal -1.0 0.0 0.0
  outer loop
    vertex 1.5 0.5 1.0
    vertex 1.5 0.0 0.0
    vertex 1.5 0.0 1.0
  endloop
endfacet
facet normal -1.0 0.0 0.0
  outer loop
    vertex 1.5 0.0 0.0
    vertex 1.5 0.5 1.0
    vertex 1.5 1.0 0.0
  endloop
endfacet
facet normal -1.0 0.0 0.0
  outer loop
    vertex 1.5 1.0 0.0
    vertex 1.5 0.5 1.0
    vertex 1.5 1.0 1.5
  endloop
endfacet
facet normal 0.0 0.0 -1.0
  outer loop
    vertex 1.5 1.0 1.5
    vertex 1.0 0.5 1.5
    vertex 1.0 1.0 1.5
  endloop
endfacet
facet normal 0.0 0.0 -1.0
  outer loop
    vertex 1.0 0.5 1.5
    vertex 1.5 1.0 1.5
    vertex 1.5 0.5 1.5
  endloop
endfacet
facet normal 1.0 0.0 0.0
  outer loop
    vertex 0.0 0.5 0.0
    vertex 0.0 0.0 1.0
    vertex 0.0 0.0 0.0
  endloop
endfacet
facet normal 1.0 0.0 0.0
  outer loop
    vertex 0.0 0.0 1.0
    vertex 0.0 0.5 0.0
    vertex 0.0 0.5 1.0
  endloop
endfacet
facet normal 0.0 -1.0 0.0
  outer loop
    vertex 1.5 1.0 1.5
    vertex 1.0 1.0 0.0
    vertex 1.5 1.0 0.0
  endloop
endfacet
facet normal 0.0 -1.0 0.0
  outer loop
    vertex 1.0 1.0 0.0
    vertex 1.5 1.0 1.5
    vertex 1.0 1.0 0.5
  endloop
endfacet
facet normal 0.0 -1.0 0.0
  outer loop
    vertex 1.0 1.0 0.5
    vertex 1.5 1.0 1.5
    vertex 0.5 1.0 0.5
  endloop
endfacet
facet normal 0.0 -1.0 0.0
  outer loop
    vertex 0.5 1.0 0.5
    vertex 1.5 1.0 1.5
    vertex 1.0 1.0 1.0
  endloop
endfacet
facet normal 0.0 -1.0 0.0
  outer loop
    vertex 1.0 1.0 1.0
    vertex 1.5 1.0 1.5
    vertex 1.0 1.0 1.5
  endloop
endfacet
facet normal 0.0 -1.0 0.0
  outer loop
    vertex 0.5 1.0 1.0
    vertex 0.5 1.0 0.5
    vertex 1.0 1.0 1.0
  endloop
endfacet
facet normal 0.0 0.0 1.0
  outer loop
    vertex 1.0 0.5 0.5
    vertex 0.5 1.0 0.5
    vertex 0.5 0.5 0.5
  endloop
endfacet
facet normal 0.0 0.0 1.0
  outer loop
    vertex 0.5 1.0 0.5
    vertex 1.0 0.5 0.5
    vertex 1.0 1.0 0.5
  endloop
endfacet
facet normal 0.0 1.0 0.0
  outer loop
    vertex 1.0 0.5 1.5
    vertex 1.5 0.5 1.0
    vertex 1.0 0.5 1.0
  endloop
endfacet
facet normal 0.0 1.0 0.0
  outer loop
    vertex 1.5 0.5 1.0
    vertex 1.0 0.5 1.5
    vertex 1.5 0.5 1.5
  endloop
endfacet
facet normal 1.0 0.0 0.0
  outer loop
    vertex 0.5 1.0 0.5
    vertex 0.5 0.5 1.0
    vertex 0.5 0.5 0.5
  endloop
endfacet
facet normal 1.0 0.0 0.0
  outer loop
    vertex 0.5 0.5 1.0
    vertex 0.5 1.0 0.5
    vertex 0.5 1.0 1.0
  endloop
endfacet
facet normal 0.0 0.0 -1.0
  outer loop
    vertex 1.0 1.0 1.0
    vertex 0.5 0.5 1.0
    vertex 0.5 1.0 1.0
  endloop
endfacet
facet normal 0.0 0.0 -1.0
  outer loop
    vertex 0.5 0.5 1.0
    vertex 1.0 1.0 1.0
    vertex 1.0 0.5 1.0
  endloop
endfacet
facet normal 0.0 0.0 -1.0
  outer loop
    vertex 0.5 0.5 1.0
    vertex 0.0 0.0 1.0
    vertex 0.0 0.5 1.0
  endloop
endfacet
facet normal 0.0 0.0 -1.0
  outer loop
    vertex 0.0 0.0 1.0
    vertex 0.5 0.5 1.0
    vertex 1.5 0.0 1.0
  endloop
endfacet
facet normal 0.0 0.0 -1.0
  outer loop
    vertex 1.5 0.0 1.0
    vertex 0.5 0.5 1.0
    vertex 1.0 0.5 1.0
  endloop
endfacet
facet normal 0.0 0.0 -1.0
  outer loop
    vertex 1.5 0.0 1.0
    vertex 1.0 0.5 1.0
    vertex 1.5 0.5 1.0
  endloop
endfacet
facet normal 1.0 0.0 0.0
  outer loop
    vertex 1.0 1.0 1.0
    vertex 1.0 0.5 1.5
    vertex 1.0 0.5 1.0
  endloop
endfacet
facet normal 1.0 0.0 0.0
  outer loop
    vertex 1.0 0.5 1.5
    vertex 1.0 1.0 1.0
    vertex 1.0 1.0 1.5
  endloop
endfacet
facet normal 0.0 1.0 0.0
  outer loop
    vertex 0.0 0.0 1.0
    vertex 1.5 0.0 0.0
    vertex 0.0 0.0 0.0
  endloop
endfacet
facet normal 0.0 1.0 0.0
  outer loop
    vertex 1.5 0.0 0.0
    vertex 0.0 0.0 1.0
    vertex 1.5 0.0 1.0
  endloop
endfacet
facet normal 0.0 -1.0 0.0
  outer loop
    vertex 1.0 0.5 0.5
    vertex 0.0 0.5 0.0
    vertex 1.0 0.5 0.0
  endloop
endfacet
facet normal 0.0 -1.0 0.0
  outer loop
    vertex 0.0 0.5 0.0
    vertex 1.0 0.5 0.5
    vertex 0.5 0.5 0.5
  endloop
endfacet
facet normal 0.0 -1.0 0.0
  outer loop
    vertex 0.0 0.5 0.0
    vertex 0.5 0.5 0.5
    vertex 0.0 0.5 1.0
  endloop
endfacet
facet normal 0.0 -1.0 0.0
  outer loop
    vertex 0.0 0.5 1.0
    vertex 0.5 0.5 0.5
    vertex 0.5 0.5 1.0
  endloop
endfacet
facet normal 1.0 0.0 0.0
  outer loop
    vertex 1.0 1.0 0.0
    vertex 1.0 0.5 0.5
    vertex 1.0 0.5 0.0
  endloop
endfacet
facet normal 1.0 0.0 0.0
  outer loop
    vertex 1.0 0.5 0.5
    vertex 1.0 1.0 0.0
    vertex 1.0 1.0 0.5
  endloop
endfacet
facet normal 0.0 0.0 1.0
  outer loop
    vertex 1.5 0.0 0.0
    vertex 0.0 0.5 0.0
    vertex 0.0 0.0 0.0
  endloop
endfacet
facet normal 0.0 0.0 1.0
  outer loop
    vertex 0.0 0.5 0.0
    vertex 1.5 0.0 0.0
    vertex 1.0 0.5 0.0
  endloop
endfacet
facet normal 0.0 0.0 1.0
  outer loop
    vertex 1.0 0.5 0.0
    vertex 1.5 0.0 0.0
    vertex 1.0 1.0 0.0
  endloop
endfacet
facet normal 0.0 0.0 1.0
  outer loop
    vertex 1.0 1.0 0.0
    vertex 1.5 0.0 0.0
    vertex 1.5 1.0 0.0
  endloop
endfacet
endsolid Untitled-56b3e713
