solid Untitled-56b2d6a1
facet normal 1.1102230246251565e-16 1.0 0.0
  outer loop
    vertex 1.019056203480347 0.043443796519652356 1.5
    vertex 0.5190562034803471 0.043443796519652356 1.0
    vertex 0.5190562034803471 0.043443796519652356 1.5
  endloop
endfacet
facet normal 1.1102230246251565e-16 1.0 0.0
  outer loop
    vertex 0.5190562034803471 0.043443796519652356 1.0
    vertex 0.01905620348034709 0.043443796519652356 0.0
    vertex 0.01905620348034709 0.043443796519652356 1.0
  endloop
endfacet
facet normal 1.1102230246251565e-16 1.0 0.0
  outer loop
    vertex 0.01905620348034709 0.043443796519652356 0.0
    vertex 0.5190562034803471 0.043443796519652356 1.0
    vertex 1.019056203480347 0.043443796519652356 0.0
  endloop
endfacet
facet normal 1.1102230246251565e-16 1.0 0.0
  outer loop
    vertex 1.019056203480347 0.043443796519652356 0.0
    vertex 0.5190562034803471 0.043443796519652356 1.0
    vertex 1.019056203480347 0.043443796519652356 1.5
  endloop
endfacet
facet normal 0.0 -0.0 -1.0
  outer loop
    vertex 1.019056203480347 0.043443796519652356 1.5
    vertex 0.5190562034803472 0.5434437965196524 1.5
    vertex 1.0190562034803472 0.5434437965196524 1.5
  endloop
endfacet
facet normal 0.0 -0.0 -1.0
  outer loop
    vertex 0.5190562034803472 0.5434437965196524 1.5
    vertex 1.019056203480347 0.043443796519652356 1.5
    vertex 0.5190562034803471 0.043443796519652356 1.5
  endloop
endfacet
facet normal -1.1102230246251565e-16 -1.0 0.0
  outer loop
    vertex 0.5190562034803472 1.5434437965196524 0.0
    vertex 0.019056203480347256 1.5434437965196524 1.0
    vertex 0.019056203480347256 1.5434437965196524 0.0
  endloop
endfacet
facet normal -1.1102230246251565e-16 -1.0 0.0
  outer loop
    vertex 0.019056203480347256 1.5434437965196524 1.0
    vertex 0.5190562034803472 1.5434437965196524 0.0
    vertex 0.5190562034803472 1.5434437965196524 1.0
  endloop
endfacet
facet normal -1.0 1.1102230246251565e-16 0.0
  outer loop
    vertex 1.019056203480347 0.043443796519652356 1.5
    vertex 1.0190562034803472 0.5434437965196524 0.0
    vertex 1.019056203480347 0.043443796519652356 0.0
  endloop
endfacet
facet normal -1.0 1.1102230246251565e-16 0.0
  outer loop
    vertex 1.0190562034803472 0.5434437965196524 0.0
    vertex 1.019056203480347 0.043443796519652356 1.5
    vertex 1.0190562034803472 0.5434437965196524 0.5
  endloop
endfacet
facet normal -1.0 1.1102230246251565e-16 0.0
  outer loop
    vertex 1.0190562034803472 0.5434437965196524 0.5
    vertex 1.019056203480347 0.043443796519652356 1.5
    vertex 1.0190562034803472 1.0434437965196524 0.5
  endloop
endfacet
facet normal -1.0 1.1102230246251565e-16 0.0
  outer loop
    vertex 1.0190562034803472 1.0434437965196524 0.5
    vertex 1.019056203480347 0.043443796519652356 1.5
    vertex 1.0190562034803472 0.5434437965196524 1.0
  endloop
endfacet
facet normal -1.0 1.1102230246251565e-16 0.0
  outer loop
    vertex 1.0190562034803472 0.5434437965196524 1.0
    vertex 1.019056203480347 0.043443796519652356 1.5
    vertex 1.0190562034803472 0.5434437965196524 1.5
  endloop
endfacet
facet normal -1.0 1.1102230246251565e-16 0.0
  outer loop
    vertex 1.0190562034803472 1.0434437965196524 1.0
    vertex 1.0190562034803472 1.0434437965196524 0.5
    vertex 1.0190562034803472 0.5434437965196524 1.0
  endloop
endfacet
facet normal 0.0 0.0 1.0
  outer loop
    vertex 0.5190562034803472 0.5434437965196524 0.5
    vertex 1.0190562034803472 1.0434437965196524 0.5
    vertex 0.5190562034803472 1.0434437965196524 0.5
  endloop
endfacet
facet normal 0.0 0.0 1.0
  outer loop
    vertex 1.0190562034803472 1.0434437965196524 0.5
    vertex 0.5190562034803472 0.5434437965196524 0.5
    vertex 1.0190562034803472 0.5434437965196524 0.5
  endloop
endfacet
facet normal 1.0 -1.1102230246251565e-16 0.0
  outer loop
    vertex 0.5190562034803472 0.5434437965196524 1.5
    vertex 0.5190562034803471 0.043443796519652356 1.0
    vertex 0.5190562034803472 0.5434437965196524 1.0
  endloop
endfacet
facet normal 1.0 -1.1102230246251565e-16 0.0
  outer loop
    vertex 0.5190562034803471 0.043443796519652356 1.0
    vertex 0.5190562034803472 0.5434437965196524 1.5
    vertex 0.5190562034803471 0.043443796519652356 1.5
  endloop
endfacet
facet normal -1.1102230246251565e-16 -1.0 0.0
  outer loop
    vertex 1.0190562034803472 1.0434437965196524 0.5
    vertex 0.5190562034803472 1.0434437965196524 1.0
    vertex 0.5190562034803472 1.0434437965196524 0.5
  endloop
endfacet
facet normal -1.1102230246251565e-16 -1.0 0.0
  outer loop
    vertex 0.5190562034803472 1.0434437965196524 1.0
    vertex 1.0190562034803472 1.0434437965196524 0.5
    vertex 1.0190562034803472 1.0434437965196524 1.0
  endloop
endfacet
facet normal 0.0 -0.0 -1.0
  outer loop
    vertex 1.0190562034803472 0.5434437965196524 1.0
    vertex 0.5190562034803472 1.0434437965196524 1.0
    vertex 1.0190562034803472 1.0434437965196524 1.0
  endloop
endfacet
facet normal 0.0 -0.0 -1.0
  outer loop
    vertex 0.5190562034803472 1.0434437965196524 1.0
    vertex 1.0190562034803472 0.5434437965196524 1.0
    vertex 0.5190562034803472 0.5434437965196524 1.0
  endloop
endfacet
facet normal 0.0 -0.0 -1.0
  outer loop
    vertex 0.5190562034803472 1.0434437965196524 1.0
    vertex 0.019056203480347256 1.5434437965196524 1.0
    vertex 0.5190562034803472 1.5434437965196524 1.0
  endloop
endfacet
facet normal 0.0 -0.0 -1.0
  outer loop
    vertex 0.019056203480347256 1.5434437965196524 1.0
    vertex 0.5190562034803472 1.0434437965196524 1.0
    vertex 0.01905620348034709 0.043443796519652356 1.0
  endloop
endfacet
facet normal 0.0 -0.0 -1.0
  outer loop
    vertex 0.01905620348034709 0.043443796519652356 1.0
    vertex 0.5190562034803472 1.0434437965196524 1.0
    vertex 0.5190562034803472 0.5434437965196524 1.0
  endloop
endfacet
facet normal 0.0 -0.0 -1.0
  outer loop
    vertex 0.01905620348034709 0.043443796519652356 1.0
    vertex 0.5190562034803472 0.5434437965196524 1.0
    vertex 0.5190562034803471 0.043443796519652356 1.0
  endloop
endfacet
facet normal -1.1102230246251565e-16 -1.0 0.0
  outer loop
    vertex 1.0190562034803472 0.5434437965196524 1.0
    vertex 0.5190562034803472 0.5434437965196524 1.5
    vertex 0.5190562034803472 0.5434437965196524 1.0
  endloop
endfacet
facet normal -1.1102230246251565e-16 -1.0 0.0
  outer loop
    vertex 0.5190562034803472 0.5434437965196524 1.5
    vertex 1.0190562034803472 0.5434437965196524 1.0
    vertex 1.0190562034803472 0.5434437965196524 1.5
  endloop
endfacet
facet normal 1.0 -1.1102230246251565e-16 0.0
  outer loop
    vertex 0.019056203480347256 1.5434437965196524 1.0
    vertex 0.01905620348034709 0.043443796519652356 0.0
    vertex 0.019056203480347256 1.5434437965196524 0.0
  endloop
endfacet
facet normal 1.0 -1.1102230246251565e-16 0.0
  outer loop
    vertex 0.01905620348034709 0.043443796519652356 0.0
    vertex 0.019056203480347256 1.5434437965196524 1.0
    vertex 0.01905620348034709 0.043443796519652356 1.0
  endloop
endfacet
facet normal -1.0 1.1102230246251565e-16 0.0
  outer loop
    vertex 0.5190562034803472 0.5434437965196524 0.5
    vertex 0.5190562034803472 1.5434437965196524 0.0
    vertex 0.5190562034803472 0.5434437965196524 0.0
  endloop
endfacet
facet normal -1.0 1.1102230246251565e-16 0.0
  outer loop
    vertex 0.5190562034803472 1.5434437965196524 0.0
    vertex 0.5190562034803472 0.5434437965196524 0.5
    vertex 0.5190562034803472 1.0434437965196524 0.5
  endloop
endfacet
facet normal -1.0 1.1102230246251565e-16 0.0
  outer loop
    vertex 0.5190562034803472 1.5434437965196524 0.0
    vertex 0.5190562034803472 1.0434437965196524 0.5
    vertex 0.5190562034803472 1.5434437965196524 1.0
  endloop
endfacet
facet normal -1.0 1.1102230246251565e-16 0.0
  outer loop
    vertex 0.5190562034803472 1.5434437965196524 1.0
    vertex 0.5190562034803472 1.0434437965196524 0.5
    vertex 0.5190562034803472 1.0434437965196524 1.0
  endloop
endfacet
facet normal -1.1102230246251565e-16 -1.0 0.0
  outer loop
    vertex 1.0190562034803472 0.5434437965196524 0.0
    vertex 0.5190562034803472 0.5434437965196524 0.5
    vertex 0.5190562034803472 0.5434437965196524 0.0
  endloop
endfacet
facet normal -1.1102230246251565e-16 -1.0 0.0
  outer loop
    vertex 0.5190562034803472 0.5434437965196524 0.5
    vertex 1.0190562034803472 0.5434437965196524 0.0
    vertex 1.0190562034803472 0.5434437965196524 0.5
  endloop
endfacet
facet normal 0.0 0.0 1.0
  outer loop
    vertex 0.01905620348034709 0.043443796519652356 0.0
    vertex 0.5190562034803472 1.5434437965196524 0.0
    vertex 0.019056203480347256 1.5434437965196524 0.0
  endloop
endfacet
facet normal 0.0 0.0 1.0
  outer loop
    vertex 0.5190562034803472 1.5434437965196524 0.0
    vertex 0.01905620348034709 0.043443796519652356 0.0
    vertex 0.5190562034803472 0.5434437965196524 0.0
  endloop
endfacet
facet normal 0.0 0.0 1.0
  outer loop
    vertex 0.5190562034803472 0.5434437965196524 0.0
    vertex 0.01905620348034709 0.043443796519652356 0.0
    vertex 1.0190562034803472 0.5434437965196524 0.0
  endloop
endfacet
facet normal 0.0 0.0 1.0
  outer loop
    vertex 1.0190562034803472 0.5434437965196524 0.0
    vertex 0.01905620348034709 0.043443796519652356 0.0
    vertex 1.019056203480347 0.043443796519652356 0.0
  endloop
endfacet
endsolid Untitled-56b2d6a1
