solid Untitled-56b3e9cc
facet normal -0.0 -1.0 -0.0
  outer loop
    vertex 1.5 0.0 0.5
    vertex 0.0 0.0 0.0
    vertex 1.5 0.0 0.0
  endloop
endfacet
facet normal -0.0 -1.0 -0.0
  outer loop
    vertex 0.0 0.0 0.0
    vertex 1.5 0.0 0.5
    vertex 0.0 0.0 0.5
  endloop
endfacet
facet normal 1.0 0.0 0.0
  outer loop
    vertex 1.5 0.5 0.0
    vertex 1.5 0.0 0.5
    vertex 1.5 0.0 0.0
  endloop
endfacet
facet normal 1.0 0.0 0.0
  outer loop
    vertex 1.5 0.0 0.5
    vertex 1.5 0.5 0.0
    vertex 1.5 0.5 0.5
  endloop
endfacet
facet normal -1.0 0.0 0.0
  outer loop
    vertex 0.0 1.0625 0.5
    vertex 0.0 0.0 0.0
    vertex 0.0 0.0 0.5
  endloop
endfacet
facet normal -1.0 0.0 0.0
  outer loop
    vertex 0.0 0.0 0.0
    vertex 0.0 1.0625 0.5
    vertex 0.0 1.0625 0.0
  endloop
endfacet
facet normal 0.0 1.0 0.0
  outer loop
    vertex 0.0 1.0625 0.5
    vertex 1.0 1.0625 0.0
    vertex 0.0 1.0625 0.0
  endloop
endfacet
facet normal 0.0 1.0 0.0
  outer loop
    vertex 1.0 1.0625 0.0
    vertex 0.0 1.0625 0.5
    vertex 1.0 1.0625 0.5
  endloop
endfacet
facet normal 0.0 0.0 -1.0
  outer loop
    vertex 1.0 1.0625 0.0
    vertex 0.0 0.0 0.0
    vertex 0.0 1.0625 0.0
  endloop
endfacet
facet normal 0.0 0.0 -1.0
  outer loop
    vertex 0.0 0.0 0.0
    vertex 1.0 1.0625 0.0
    vertex 1.0 0.5 0.0
  endloop
endfacet
facet normal 0.0 0.0 -1.0
  outer loop
    vertex 0.0 0.0 0.0
    vertex 1.0 0.5 0.0
    vertex 1.5 0.0 0.0
  endloop
endfacet
facet normal 0.0 0.0 -1.0
  outer loop
    vertex 1.5 0.0 0.0
    vertex 1.0 0.5 0.0
    vertex 1.5 0.5 0.0
  endloop
endfacet
facet normal 0.0 0.0 1.0
  outer loop
    vertex 1.0 1.0625 0.5
    vertex 0.0 1.0625 0.5
    vertex 1.0 0.5 0.5
  endloop
endfacet
facet normal 0.0 0.0 1.0
  outer loop
    vertex 1.5 0.0 0.5
    vertex 0.0 1.0625 0.5
    vertex 0.0 0.0 0.5
  endloop
endfacet
facet normal 0.0 0.0 1.0
  outer loop
    vertex 0.0 1.0625 0.5
    vertex 1.5 0.0 0.5
    vertex 1.0 0.5 0.5
  endloop
endfacet
facet normal 0.0 0.0 1.0
  outer loop
    vertex 1.0 0.5 0.5
    vertex 1.5 0.0 0.5
    vertex 1.5 0.5 0.5
  endloop
endfacet
facet normal 1.0 0.0 0.0
  outer loop
    vertex 1.0 1.0625 0.0
    vertex 1.0 0.5 0.5
    vertex 1.0 0.5 0.0
  endloop
endfacet
facet normal 1.0 0.0 0.0
  outer loop
    vertex 1.0 0.5 0.5
    vertex 1.0 1.0625 0.0
    vertex 1.0 1.0625 0.5
  endloop
endfacet
facet normal 0.0 1.0 0.0
  outer loop
    vertex 1.0 0.5 0.5
    vertex 1.5 0.5 0.0
    vertex 1.0 0.5 0.0
  endloop
endfacet
facet normal 0.0 1.0 0.0
  outer loop
    vertex 1.5 0.5 0.0
    vertex 1.0 0.5 0.5
    vertex 1.5 0.5 0.5
  endloop
endfacet
endsolid Untitled-56b3e9cc
